<svg xmlns="http://www.w3.org/2000/svg" xmlns:xlink="http://www.w3.org/1999/xlink" width="53" height="53" viewBox="0 0 53 53"><defs><path id="jm85a" d="M874 6052c-13.79 0-25-11.22-25-25 0-13.79 11.21-25 25-25 13.78 0 25 11.21 25 25 0 13.78-11.22 25-25 25zm0-48.08a23.1 23.1 0 0 0-23.08 23.08 23.1 23.1 0 0 0 23.08 23.07 23.1 23.1 0 0 0 23.08-23.07 23.1 23.1 0 0 0-23.08-23.08zm0 43.6a20.54 20.54 0 0 1-20.52-20.52c0-11.32 9.2-20.52 20.52-20.52 11.31 0 20.52 9.2 20.52 20.52 0 11.31-9.2 20.51-20.52 20.51zm0-39.12a18.62 18.62 0 0 0-18.6 18.6c0 10.25 8.35 18.6 18.6 18.6 10.25 0 18.6-8.35 18.6-18.6 0-10.26-8.35-18.6-18.6-18.6z"/></defs><g><g transform="translate(-847 -6000)"><use fill="#94bee6" xlink:href="#jm85a"/></g></g></svg>