<svg xmlns="http://www.w3.org/2000/svg" xmlns:xlink="http://www.w3.org/1999/xlink" width="20" height="20" viewBox="0 0 20 20"><defs><path id="4928a" d="M1144.15 325.8l5.4 5.27c.6.58.6 1.53 0 2.11-.59.58-1.56.58-2.15 0l-5.37-5.23-5.52 5.6c-.58.58-1.5.58-2.08 0a1.5 1.5 0 0 1 0-2.1l5.2-5.29-5.2-5.27a1.5 1.5 0 0 1 0-2.12c.57-.58 1.5-.58 2.08 0l5.16 5.24 5.73-5.59c.6-.58 1.56-.58 2.16 0 .6.59.6 1.53 0 2.11z"/></defs><g><g transform="translate(-1132 -316)"><use fill="#626365" xlink:href="#4928a"/></g></g></svg>