<svg xmlns="http://www.w3.org/2000/svg" xmlns:xlink="http://www.w3.org/1999/xlink" width="32" height="32" viewBox="0 0 32 32"><defs><path id="nh0oa" d="M962 43.5a14.5 14.5 0 1 1-29 0 14.5 14.5 0 0 1 29 0zm-7.3 3.78a4.69 4.69 0 0 0-3.07-2.14.48.48 0 0 0-.44.1c-.7.6-1.68 1.25-2.1 1.31-2.82-1.38-4.39-4.02-4.45-4.52-.03-.28.61-1.27 1.36-2.08a.5.5 0 0 0 .12-.38c-.19-2.17-2.45-3.23-2.55-3.28a.47.47 0 0 0-.29-.04c-2.61.44-3 1.96-3.02 2.02a.5.5 0 0 0 0 .27c3.13 9.68 9.61 11.48 11.75 12.07l.4.11a.51.51 0 0 0 .36-.02c.06-.03 1.6-.75 1.98-3.12.01-.1 0-.21-.05-.3z"/></defs><g><g transform="translate(-931 -27)"><use fill="#94bee6" xlink:href="#nh0oa"/></g></g></svg>