<?xml version="1.0" encoding="utf-8"?>
<!-- Generator: Adobe Illustrator 21.1.0, SVG Export Plug-In . SVG Version: 6.00 Build 0)  -->
<svg version="1.1" id="Layer_1" xmlns="http://www.w3.org/2000/svg" xmlns:xlink="http://www.w3.org/1999/xlink" x="0px" y="0px"
	 viewBox="0 0 26 26" style="enable-background:new 0 0 26 26;" xml:space="preserve">
<style type="text/css">
	.st0{fill:#3B5998;}
</style>
<g>
	<path class="st0" d="M17.1,13.5c-0.1,0.6-0.3,1.1-0.6,1.6c-0.3,0.5-0.7,0.9-1.2,1.3c-1.3,0.9-3,0.9-4.3,0.2
		c-0.7-0.4-1.2-0.9-1.6-1.6c-0.6-1-0.6-2.1-0.3-3.2c-0.4,0-0.8,0-1.3,0v0c0,2,0,3.9,0,5.9c0,0.3,0.2,0.5,0.5,0.5c3.1,0,6.2,0,9.3,0
		c0.3,0,0.5-0.2,0.5-0.5c0-2,0-3.9,0-5.9v0h-1.3C17.1,12.3,17.1,12.9,17.1,13.5z"/>
	<path class="st0" d="M12.9,15.7c1.5,0,2.7-1.2,2.7-2.6c0-1.5-1.2-2.7-2.7-2.7c-1.5,0-2.7,1.2-2.7,2.6
		C10.3,14.5,11.5,15.6,12.9,15.7z"/>
	<path class="st0" d="M15.9,9.4c0.1,0.2,0.3,0.4,0.5,0.4c0.2,0,0.4,0,0.6,0v0c0.2,0,0.4,0,0.7,0c0.3,0,0.5-0.2,0.5-0.5
		c0-0.4,0-0.8,0-1.3c0-0.3-0.2-0.5-0.5-0.5c-0.4,0-0.8,0-1.2,0c-0.3,0-0.5,0.2-0.5,0.5c0,0.4,0,0.8,0,1.2
		C15.9,9.3,15.9,9.4,15.9,9.4z"/>
	<path class="st0" d="M0,0v26h26V0H0z M19.6,18.3c0,0.1,0,0.1,0,0.2c-0.1,0.5-0.5,1-1.1,1.1c-0.1,0-0.1,0-0.2,0v0H7.7
		c0,0-0.1,0-0.1,0c-0.6-0.1-1.1-0.5-1.2-1.1c0-0.1,0-0.1,0-0.2V7.7c0,0,0,0,0-0.1C6.5,7,6.9,6.6,7.5,6.4c0.1,0,0.1,0,0.2,0h10.6
		c0,0,0,0,0.1,0c0.6,0.1,1.1,0.5,1.2,1.1c0,0.1,0,0.1,0,0.2V18.3z"/>
</g>
</svg>
