<svg xmlns="http://www.w3.org/2000/svg" xmlns:xlink="http://www.w3.org/1999/xlink" width="81" height="81" viewBox="0 0 81 81"><defs><path id="wn6ga" d="M484.44 2105.05a7.5 7.5 0 0 1-9.4.97l-4.26 4.26a13.42 13.42 0 0 1 2.93 8.4c0 3.62-1.4 7.02-3.96 9.58a1.54 1.54 0 0 1-2.19 0c-.6-.6-.6-1.59 0-2.2a10.36 10.36 0 0 0 1-13.57l-4.88 4.88a13.78 13.78 0 0 1-5.55 21.32l2.25 8.45a10.37 10.37 0 0 0 4.53-11.13 1.55 1.55 0 1 1 3.02-.7 13.44 13.44 0 0 1-6.72 14.93l1.15 4.32a7.45 7.45 0 0 1 7.64 5.55 7.46 7.46 0 0 1-5.31 9.18 7.52 7.52 0 0 1-8.43-11 7.45 7.45 0 0 1 3.11-2.93l-1.05-3.96a13.49 13.49 0 0 1-16.78-10.14 1.55 1.55 0 0 1 3.02-.66 10.45 10.45 0 0 0 12.96 7.81l-2.37-8.9a13.73 13.73 0 0 1-15.83-15.6l-8.92-2.37a10.43 10.43 0 0 0 7.2 12.6 1.55 1.55 0 0 1-.86 2.97 13.52 13.52 0 0 1-9.33-16.36l-3.62-.97a7.44 7.44 0 0 1-8.62 3.86 7.45 7.45 0 0 1-4.56-3.49 7.5 7.5 0 1 1 13.98-3.36l3.92 1.05a13.49 13.49 0 0 1 15.02-6.9 1.54 1.54 0 1 1-.7 3 10.38 10.38 0 0 0-11.22 4.73l8.5 2.26a13.79 13.79 0 0 1 21.4-5.74l4.87-4.89a10.37 10.37 0 0 0-13.58 1 1.54 1.54 0 1 1-2.19-2.18 13.44 13.44 0 0 1 9.57-3.96c3.1 0 6.02 1.04 8.4 2.94l4.27-4.26a7.5 7.5 0 1 1 11.59 1.2zm-25.5 54.78a4.41 4.41 0 1 0 0 0zm-38.03-45.64a4.38 4.38 0 0 0-3.81-2.2 4.42 4.42 0 1 0 3.81 2.2zm39.56 4.21a10.64 10.64 0 0 0-7.55-3.12 10.64 10.64 0 0 0-10.68 10.67 10.69 10.69 0 0 0 21.35 0 10.6 10.6 0 0 0-3.12-7.55zm21.78-21.78a4.4 4.4 0 1 0-6.22 6.22 4.4 4.4 0 0 0 6.22-6.22z"/><path id="wn6gb" d="M452 2102a25 25 0 1 1 0 50 25 25 0 0 1 0-50z"/><mask id="wn6gd" width="2" height="2" x="-1" y="-1"><path fill="#fff" d="M409 2092h78v78h-78z"/><use xlink:href="#wn6ga"/></mask><filter id="wn6gc" width="118" height="128" x="389" y="2082" filterUnits="userSpaceOnUse"><feOffset dy="10" in="SourceGraphic" result="FeOffset1103Out"/><feGaussianBlur in="FeOffset1103Out" result="FeGaussianBlur1104Out" stdDeviation="4 4"/></filter></defs><g><g transform="translate(-408 -2090)"><use fill="#fff200" xlink:href="#wn6gb"/></g><g transform="translate(-408 -2090)"><g filter="url(#wn6gc)"><use fill="none" stroke-opacity=".3" stroke-width="0" mask="url(&quot;#wn6gd&quot;)" xlink:href="#wn6ga"/><use fill-opacity=".3" xlink:href="#wn6ga"/></g><use fill="#fff" xlink:href="#wn6ga"/></g></g></svg>