<?xml version="1.0" encoding="utf-8"?>
<!-- Generator: Adobe Illustrator 21.1.0, SVG Export Plug-In . SVG Version: 6.00 Build 0)  -->
<svg version="1.1" id="Layer_1" xmlns="http://www.w3.org/2000/svg" xmlns:xlink="http://www.w3.org/1999/xlink" x="0px" y="0px"
	 viewBox="0 0 40 40" style="enable-background:new 0 0 40 40;" xml:space="preserve">
<style type="text/css">
	.st0{fill-rule:evenodd;clip-rule:evenodd;fill:#FFF200;}
	.st1{fill-rule:evenodd;clip-rule:evenodd;fill:#94BEE6;}
</style>
<path class="st0" d="M20,8.4c6.4,0,11.6,5.2,11.6,11.6c0,6.4-5.2,11.6-11.6,11.6S8.4,26.4,8.4,20C8.4,13.6,13.6,8.4,20,8.4z"/>
<path class="st1" d="M20,40C9,40,0,31,0,20C0,9,9,0,20,0c11,0,20,9,20,20C40,31,31,40,20,40z M20,1.5C9.8,1.5,1.5,9.8,1.5,20
	c0,10.2,8.3,18.5,18.5,18.5c10.2,0,18.5-8.3,18.5-18.5C38.5,9.8,30.2,1.5,20,1.5z M20,36.4c-9.1,0-16.4-7.4-16.4-16.4
	c0-9.1,7.4-16.4,16.4-16.4c9.1,0,16.4,7.4,16.4,16.4C36.4,29.1,29.1,36.4,20,36.4z M20,5.1C11.8,5.1,5.1,11.8,5.1,20
	c0,8.2,6.7,14.9,14.9,14.9c8.2,0,14.9-6.7,14.9-14.9C34.9,11.8,28.2,5.1,20,5.1z M19.3,24.7c-0.3,0.3-0.8,0.3-1.1,0l-4.4-4.4
	c-0.3-0.3-0.3-0.8,0-1.1c0.3-0.3,0.8-0.3,1.1,0l3.9,3.9l6.3-6.3c0.3-0.3,0.8-0.3,1.1,0c0.3,0.3,0.3,0.8,0,1.1L19.3,24.7z"/>
</svg>
