<svg xmlns="http://www.w3.org/2000/svg" xmlns:xlink="http://www.w3.org/1999/xlink" width="81" height="81" viewBox="0 0 81 81"><defs><path id="2hbla" d="M878.4 2107.2a9.52 9.52 0 0 1-5.6-1.8l-9.9 9.9a18 18 0 0 1 4.2 10.14h4.16a7.24 7.24 0 1 1 0 3.12h-4.16a18 18 0 0 1-4.2 10.13l9.9 9.9a9.53 9.53 0 0 1 12.38 1 9.54 9.54 0 0 1 2.82 6.8c0 2.57-1 4.98-2.81 6.8a9.53 9.53 0 0 1-6.8 2.8 9.54 9.54 0 0 1-7.8-15.2l-9.9-9.9a18 18 0 0 1-10.13 4.2v4.16a7.24 7.24 0 1 1-3.12 0v-4.15a18 18 0 0 1-10.13-4.2l-9.91 9.9a9.54 9.54 0 0 1-1 12.38 9.53 9.53 0 0 1-6.8 2.82c-2.56 0-4.97-1-6.79-2.82a9.54 9.54 0 0 1-2.81-6.78c0-2.57 1-4.98 2.81-6.8a9.53 9.53 0 0 1 12.38-1l9.91-9.91a18 18 0 0 1-4.2-10.13h-4.16a7.23 7.23 0 1 1 0-3.12h4.16a18 18 0 0 1 4.2-10.13l-9.9-9.91a9.53 9.53 0 0 1-12.38-1 9.54 9.54 0 0 1-2.82-6.8c0-2.57 1-4.98 2.81-6.8a9.54 9.54 0 0 1 6.8-2.8 9.54 9.54 0 0 1 7.8 15.2l9.9 9.9a18.08 18.08 0 0 1 10.13-4.19v-4.17a7.24 7.24 0 1 1 3.12 0v4.17a18.1 18.1 0 0 1 10.13 4.2l9.91-9.92a9.54 9.54 0 0 1 1-12.38 9.54 9.54 0 0 1 6.8-2.81c2.56 0 4.97 1 6.79 2.8a9.54 9.54 0 0 1 2.81 6.8c0 2.56-1 4.97-2.81 6.79a9.53 9.53 0 0 1-6.8 2.81zm-.1 23.9a4.12 4.12 0 1 0 0-8.22 4.12 4.12 0 0 0 0 8.23zm-4.49 29.88a6.44 6.44 0 0 0 4.59 1.9c1.73 0 3.36-.68 4.58-1.9a6.44 6.44 0 0 0-4.58-11.06 6.44 6.44 0 0 0-4.58 11.06zm-49.62-9.17a6.44 6.44 0 0 0-4.59-1.9c-1.73 0-3.36.68-4.58 1.9a6.44 6.44 0 0 0 0 9.17 6.44 6.44 0 0 0 4.58 1.9c1.73 0 3.36-.68 4.59-1.9a6.44 6.44 0 0 0 0-9.17zm-4.5-28.92a4.11 4.11 0 1 0 .01 8.23 4.11 4.11 0 0 0 0-8.23zm4.5-29.87a6.44 6.44 0 0 0-9.17 0 6.44 6.44 0 0 0 4.58 11.06 6.44 6.44 0 0 0 6.49-6.48c0-1.73-.68-3.36-1.9-4.58zm20.7 63.28a4.11 4.11 0 1 0 8.23 0 4.11 4.11 0 0 0-8.23 0zm8.22-58.61a4.12 4.12 0 1 0-8.23 0 4.12 4.12 0 0 0 8.23 0zm6.53 18.67a15 15 0 0 0-10.64-4.4 15 15 0 0 0-15.05 15.04c0 4.02 1.57 7.8 4.4 10.64a14.95 14.95 0 0 0 10.64 4.4h.01c4.02 0 7.8-1.56 10.64-4.4a14.95 14.95 0 0 0 4.4-10.64c0-4.02-1.56-7.8-4.4-10.64zm23.34-23.34a6.44 6.44 0 0 0-9.17 0 6.44 6.44 0 0 0 4.58 11.06c1.74 0 3.37-.67 4.6-1.9a6.44 6.44 0 0 0 0-9.16z"/><path id="2hblb" d="M849 2102a25 25 0 1 1 0 50 25 25 0 0 1 0-50z"/><mask id="2hbld" width="2" height="2" x="-1" y="-1"><path fill="#fff" d="M810 2088h78v78h-78z"/><use xlink:href="#2hbla"/></mask><filter id="2hblc" width="118" height="128" x="790" y="2078" filterUnits="userSpaceOnUse"><feOffset dy="10" in="SourceGraphic" result="FeOffset1048Out"/><feGaussianBlur in="FeOffset1048Out" result="FeGaussianBlur1049Out" stdDeviation="4 4"/></filter></defs><g><g transform="translate(-808 -2086)"><use fill="#fff200" xlink:href="#2hblb"/></g><g transform="translate(-808 -2086)"><g filter="url(#2hblc)"><use fill="none" stroke-opacity=".3" stroke-width="0" mask="url(&quot;#2hbld&quot;)" xlink:href="#2hbla"/><use fill-opacity=".3" xlink:href="#2hbla"/></g><use fill="#fff" xlink:href="#2hbla"/></g></g></svg>