<?xml version="1.0" encoding="utf-8"?>
<!-- Generator: Adobe Illustrator 21.1.0, SVG Export Plug-In . SVG Version: 6.00 Build 0)  -->
<svg version="1.1" id="Layer_1" xmlns="http://www.w3.org/2000/svg" xmlns:xlink="http://www.w3.org/1999/xlink" x="0px" y="0px"
	 viewBox="0 0 26 26" style="enable-background:new 0 0 26 26;" xml:space="preserve">
<style type="text/css">
	.st0{fill-rule:evenodd;clip-rule:evenodd;fill:#D6492F;}
</style>
<path class="st0" d="M26,9v17H11.9l2.3,0c0.2-0.7,0.3-1.2,0.3-1.9c0-2.6-2.2-3.9-3.9-5.4l-1.4-1.1c-0.4-0.3-1-0.8-1-1.6
	c0-0.8,0.6-1.4,1.1-1.9c1.6-1.3,3.1-2.6,3.1-5.4c0-2.6-1.4-4-2.3-4.8h2.3l2.1-1.7H6.6c-2,0-4.4,0.3-6.6,2.1V0h26v7h-4.9V2.1h-2.1V7
	h-4.8v2h4.8v4.9h2.1V9H26z M0,22.5c0.8-1.1,1.7-1.2,2.3-1.4c1.6-0.5,3.7-0.6,4-0.6c0.4,0,0.6,0,0.9,0c2.9,2.1,4.8,3.1,4.8,5.1
	c0,0.2,0,0.3,0,0.4H0V22.5z M1.2,7.5c0-1,0.1-2,0.7-2.8c0.6-0.8,1.7-1.3,2.7-1.3c3.2,0,4.8,4.3,4.8,7c0,0.6-0.3,1.6-1,2.5
	c-0.6,0.7-1.6,1-2.6,1C2.5,13.9,1.2,10.1,1.2,7.5z M5.1,15.4c-0.2,0.5-0.4,0.8-0.4,1.5c0,1.2,0.6,1.9,1.1,2.6
	c-1.5,0.1-3.7,0.1-5.9,1.1v-6.3c1,0.9,2.2,1.2,3.9,1.2C4.3,15.4,4.7,15.4,5.1,15.4z"/>
</svg>
