<?xml version="1.0" encoding="utf-8"?>
<!-- Generator: Adobe Illustrator 21.1.0, SVG Export Plug-In . SVG Version: 6.00 Build 0)  -->
<svg version="1.1" id="Layer_1" xmlns="http://www.w3.org/2000/svg" xmlns:xlink="http://www.w3.org/1999/xlink" x="0px" y="0px"
	 viewBox="0 0 29 29" style="enable-background:new 0 0 29 29;" xml:space="preserve">
<style type="text/css">
	.st0{fill:#94BEE6;}
</style>
<path class="st0" d="M14.5,0C6.5,0,0,6.5,0,14.5C0,22.5,6.5,29,14.5,29c8,0,14.5-6.5,14.5-14.5C29,6.5,22.5,0,14.5,0z M21.7,18.6
	c-0.4,2.4-1.9,3.1-2,3.1c-0.1,0-0.1,0-0.2,0c-0.1,0-0.1,0-0.2,0c-0.1,0-0.2-0.1-0.4-0.1C16.9,21,10.4,19.2,7.3,9.5
	c0-0.1,0-0.2,0-0.3c0-0.1,0.4-1.6,3-2c0.1,0,0.2,0,0.3,0c0.1,0,2.4,1.1,2.6,3.3c0,0.1,0,0.3-0.1,0.4c-0.7,0.8-1.4,1.8-1.4,2.1
	c0.1,0.5,1.6,3.1,4.4,4.5c0.4-0.1,1.4-0.7,2.1-1.3c0.1-0.1,0.3-0.1,0.4-0.1c2.2,0.5,3,2.1,3.1,2.1C21.7,18.4,21.8,18.5,21.7,18.6z"
	/>
</svg>
