<svg xmlns="http://www.w3.org/2000/svg" xmlns:xlink="http://www.w3.org/1999/xlink" width="98" height="105" viewBox="0 0 98 105"><defs><path id="8c1va" d="M855.84 901.84a1.51 1.51 0 0 0-1.45-.86l-17.51.77-.37-2.72a1.54 1.54 0 1 0-3.06.41l.46 3.44-7.22 8.65-1.96-14.66 7.25-8.69a1.55 1.55 0 0 0 2.97-.75l-.41-3.1a1.55 1.55 0 0 0-2.71-.78l-9.9 11.86c-.29.33-.41.76-.35 1.2l2.43 18.13-25.35 30.35a1.55 1.55 0 0 0 1.18 2.54c.44 0 .88-.19 1.18-.56l25.36-30.34 18.24-.8c.44-.02.84-.22 1.12-.55l9.9-11.86c.4-.47.48-1.13.2-1.68zm-4.8 2.39l-7.23 8.64-14.75.65 7.22-8.65zm-15.74-9.65c.3-.3.45-.68.45-1.08 0-.42-.15-.8-.45-1.1a1.61 1.61 0 0 0-2.19 0c-.27.3-.44.68-.44 1.1 0 .4.17.79.44 1.08.3.3.7.46 1.1.46.4 0 .8-.17 1.1-.46zm-24.33 45.94a12.47 12.47 0 0 1-11.13 18.03 12.47 12.47 0 1 1 3.73-24.36 1.55 1.55 0 0 0 .93-2.95 15.56 15.56 0 1 0-4.66 30.4 15.56 15.56 0 0 0 13.89-22.5 1.55 1.55 0 0 0-2.76 1.39zm10.02-6a24.16 24.16 0 0 1-21.15 35.71 24.15 24.15 0 0 1 0-48.3c2.62 0 5.2.43 7.67 1.26a1.55 1.55 0 0 0 .98-2.93 27.24 27.24 0 1 0-8.65 53.06 27.24 27.24 0 0 0 23.86-40.28 1.55 1.55 0 0 0-2.7 1.48zm-8.3-23.56a1.54 1.54 0 0 0-1-1.94A38.92 38.92 0 1 0 799.84 985a38.92 38.92 0 0 0 32.96-59.52 1.55 1.55 0 0 0-2.62 1.64 35.83 35.83 0 0 1-30.34 54.79 35.83 35.83 0 0 1 .01-71.65c3.73 0 7.4.57 10.91 1.7.81.26 1.68-.18 1.94-1z"/><path id="8c1vb" d="M800 926a20 20 0 1 1 0 40 20 20 0 0 1 0-40z"/><mask id="8c1vd" width="2" height="2" x="-1" y="-1"><path fill="#fff" d="M761 883h95v102h-95z"/><use xlink:href="#8c1va"/></mask><filter id="8c1vc" width="135" height="152" x="741" y="873" filterUnits="userSpaceOnUse"><feOffset dy="10" in="SourceGraphic" result="FeOffset1028Out"/><feGaussianBlur in="FeOffset1028Out" result="FeGaussianBlur1029Out" stdDeviation="4 4"/></filter></defs><g><g transform="translate(-760 -881)"><use fill="#fff200" xlink:href="#8c1vb"/></g><g transform="translate(-760 -881)"><g filter="url(#8c1vc)"><use fill="none" stroke-opacity=".3" stroke-width="0" mask="url(&quot;#8c1vd&quot;)" xlink:href="#8c1va"/><use fill-opacity=".3" xlink:href="#8c1va"/></g><use fill="#fff" xlink:href="#8c1va"/></g></g></svg>