<?xml version="1.0" encoding="utf-8"?>
<!-- Generator: Adobe Illustrator 21.1.0, SVG Export Plug-In . SVG Version: 6.00 Build 0)  -->
<svg version="1.1" id="Layer_1" xmlns="http://www.w3.org/2000/svg" xmlns:xlink="http://www.w3.org/1999/xlink" x="0px" y="0px"
	 viewBox="0 0 50 50" style="enable-background:new 0 0 50 50;" xml:space="preserve">
<style type="text/css">
	.st0{fill-rule:evenodd;clip-rule:evenodd;fill:#FFF200;}
	.st1{fill-rule:evenodd;clip-rule:evenodd;fill:#94BEE6;}
</style>
<path class="st0" d="M25,10.6c8,0,14.5,6.5,14.5,14.5c0,8-6.5,14.5-14.5,14.5c-8,0-14.5-6.5-14.5-14.5C10.6,17,17,10.6,25,10.6z"/>
<path class="st1" d="M25,50C11.2,50,0,38.8,0,25C0,11.2,11.2,0,25,0c13.8,0,25,11.2,25,25C50,38.8,38.8,50,25,50z M25,1.9
	C12.3,1.9,1.9,12.3,1.9,25c0,12.7,10.4,23.1,23.1,23.1S48.1,37.7,48.1,25C48.1,12.3,37.7,1.9,25,1.9z M25,45.5
	C13.7,45.5,4.5,36.3,4.5,25S13.7,4.5,25,4.5c11.3,0,20.5,9.2,20.5,20.5S36.3,45.5,25,45.5z M25,6.4C14.7,6.4,6.4,14.7,6.4,25
	c0,10.3,8.3,18.6,18.6,18.6c10.3,0,18.6-8.3,18.6-18.6C43.6,14.7,35.3,6.4,25,6.4z M24.2,30.9c-0.4,0.4-1,0.4-1.4,0l-5.5-5.5
	c-0.4-0.4-0.4-1,0-1.4c0.4-0.4,1-0.4,1.4,0l4.8,4.8l7.9-7.9c0.4-0.4,1-0.4,1.4,0c0.4,0.4,0.4,1,0,1.4L24.2,30.9z"/>
</svg>
