<?xml version="1.0" encoding="utf-8"?>
<!-- Generator: Adobe Illustrator 21.1.0, SVG Export Plug-In . SVG Version: 6.00 Build 0)  -->
<svg version="1.1" id="Layer_1" xmlns="http://www.w3.org/2000/svg" xmlns:xlink="http://www.w3.org/1999/xlink" x="0px" y="0px"
	 viewBox="0 0 51 58.9" style="enable-background:new 0 0 51 58.9;" xml:space="preserve">
<style type="text/css">
	.st0{fill-rule:evenodd;clip-rule:evenodd;fill:#94BEE6;}
	.st1{fill-rule:evenodd;clip-rule:evenodd;fill:#626365;}
</style>
<path class="st0" d="M24.5,23c8,0,14.5,6.5,14.5,14.5c0,8-6.5,14.5-14.5,14.5S10,45.5,10,37.5C10,29.5,16.5,23,24.5,23z"/>
<path class="st1" d="M35.8,47.7c3.2-1.6,7-1.4,10.1,0.6c3.2,2,5,5.4,5,9.1c0,0.8-0.7,1.5-1.5,1.5H21.7c-0.8,0-1.5-0.7-1.5-1.5
	s0.7-1.5,1.5-1.5h26.2c-0.4-2.1-1.7-3.9-3.5-5.1c-2.2-1.4-4.9-1.5-7.2-0.4c-2.3,1.2-4,2.7-4,2.8c-0.6,0.6-1.5,0.6-2.1,0
	c-0.3-0.3-0.4-0.7-0.4-1.1c0-0.4,0.2-0.8,0.4-1.1c0,0,0.4-0.4,1-0.9c-18.3-4.7-25.6,2.1-28,5.7h7.3c0.8,0,1.5,0.7,1.5,1.5
	s-0.7,1.5-1.5,1.5H1.5c-0.1,0-0.3,0-0.4-0.1c0,0,0,0,0,0c0,0,0,0,0,0c-0.2-0.1-0.3-0.1-0.4-0.2c0,0,0,0-0.1-0.1
	c-0.1-0.1-0.2-0.2-0.3-0.4c0,0,0,0,0,0c0,0,0,0,0,0c0,0,0-0.1-0.1-0.1c0,0,0-0.1,0-0.1c0,0,0-0.1,0-0.1c0-0.1,0-0.1,0-0.2
	c0,0,0,0,0-0.1c0,0,0-0.1,0-0.1c0-0.1,0-0.1,0-0.2c0,0,0-0.1,0-0.1c0,0,0-0.1,0-0.1c0.1-0.2,5.1-14.7,28-10.7
	c1.6-1.8,2.4-3.6,2.3-5.5c-0.1-3.6-2.9-6.4-3.2-6.7c-0.9-0.7-1.7-1.4-2.5-2.1c-1.1,0.4-2.2,0.6-3.4,0.6c-3.6,0-7-1.9-8.9-5
	C8.1,20.9,8,15,12,10.3c0.4-0.5,1.1-0.7,1.7-0.4c0.6,0.2,1,0.8,1,1.4c0,0.2,0.1,5.9,5,5.9c0.9,0,1.8,0.1,2.7,0.4l0-0.1l0.1,0
	c-0.4-1.7-0.5-3.4-0.1-5.1C23.9,4.8,28,0.5,34,0c0.6-0.1,1.2,0.3,1.5,0.9c0.3,0.6,0.1,1.3-0.3,1.7c-0.2,0.2-4,4.3-0.7,7.7
	c1.6,1.6,2.6,3.7,3,5.8c2.6-2.1,2.4-6.3,2.4-6.5c0,0,0,0,0,0c0-0.1,0-0.3,0-0.4c0,0,0,0,0-0.1c0-0.1,0.1-0.3,0.2-0.4
	c0,0,0,0,0.1-0.1c0.1-0.1,0.2-0.2,0.3-0.3c0,0,0.1-0.1,0.1-0.1c0.1,0,0.1-0.1,0.2-0.1c0.1,0,0.1,0,0.2,0c0,0,0.1,0,0.1,0
	c0,0,0.1,0,0.1,0c0,0,0,0,0.1,0c0.3,0,0.5,0,0.8,0.1c0,0,0,0,0.1,0c0,0,0,0,0.1,0c0,0,0,0.1,0.1,0.1c0.1,0,0.1,0.1,0.2,0.1
	c5,5,5.4,11.8,1.1,19.9c-1.6,3-4.3,5.2-7.4,6.1c-1.1,0.3-2.2,0.5-3.3,0.5c-0.4,0-0.8,0-1.2-0.1c0.9,1.5,1.7,3.5,1.8,5.8
	c0.1,2.2-0.6,4.3-2,6.3c1.3,0.3,2.6,0.6,4,1.1C35.5,47.9,35.7,47.8,35.8,47.7z M24.5,22c-0.1-0.1-0.2-0.2-0.3-0.2
	c-0.1-0.1-0.2-0.2-0.4-0.3c-0.1-0.1-0.2-0.1-0.3-0.2c-0.1-0.1-0.3-0.1-0.4-0.2C23,21,22.9,21,22.8,20.9c-0.1-0.1-0.3-0.1-0.4-0.2
	c-0.1,0-0.2-0.1-0.3-0.1c-0.2-0.1-0.3-0.1-0.5-0.1c-0.1,0-0.2-0.1-0.3-0.1c-0.2,0-0.4-0.1-0.5-0.1c-0.1,0-0.2,0-0.3,0
	c-0.3,0-0.6-0.1-0.8-0.1c-3.3,0-5.8-1.8-7.1-4.8c-0.9,3-0.1,6.5,2.4,10.5h0c0.1,0.2,0.3,0.4,0.4,0.6c0,0,0,0,0,0.1
	c0.1,0.2,0.3,0.3,0.4,0.5c0,0,0.1,0.1,0.1,0.1c0.1,0.1,0.2,0.2,0.4,0.4c0,0,0.1,0.1,0.1,0.1c0.1,0.1,0.2,0.2,0.4,0.3
	c0.1,0,0.1,0.1,0.2,0.1c0.1,0.1,0.2,0.2,0.4,0.3c0.1,0,0.1,0.1,0.2,0.1c0.1,0.1,0.3,0.2,0.4,0.2c0.1,0,0.1,0.1,0.2,0.1
	c0.1,0.1,0.3,0.1,0.4,0.2c0.1,0,0.1,0,0.2,0.1c0.1,0.1,0.3,0.1,0.4,0.2c0.1,0,0.1,0,0.2,0.1c0.1,0,0.3,0.1,0.4,0.1
	c0.1,0,0.1,0,0.2,0c0.1,0,0.3,0.1,0.4,0.1c0.1,0,0.1,0,0.2,0c0.1,0,0.3,0,0.4,0c0.1,0,0.1,0,0.2,0c0.1,0,0.3,0,0.4,0
	c0.1,0,0.2,0,0.2,0c0.1,0,0.3,0,0.4,0c0.1,0,0.2,0,0.2,0c0.1,0,0.3,0,0.4-0.1c0.1,0,0.2,0,0.3-0.1c0.1,0,0.2-0.1,0.4-0.1
	c0.1,0,0.2-0.1,0.3-0.1c0,0,0.1,0,0.1,0c0,0,0,0,0,0c-0.1-0.3-0.1-0.7-0.1-1c0-0.1,0-0.1,0-0.2c0-0.3,0-0.7,0.1-1c0-0.1,0-0.1,0-0.2
	c0.1-0.4,0.1-0.7,0.3-1.1c0,0,0-0.1,0-0.1c0.1-0.4,0.3-0.8,0.5-1.2c0.1-0.3,0.3-0.6,0.5-0.8c0.1-0.1,0.1-0.2,0.2-0.3
	c0.1-0.1,0.1-0.2,0.2-0.4c-0.1-0.1-0.1-0.1-0.2-0.2c-0.1-0.1-0.2-0.2-0.3-0.3C24.7,22.2,24.6,22.1,24.5,22z M40.2,17.8
	c-0.1,0.1-0.2,0.2-0.4,0.3c-0.1,0.1-0.3,0.3-0.4,0.4c-0.1,0.1-0.3,0.2-0.4,0.3c-0.2,0.1-0.3,0.2-0.5,0.4c-0.2,0.1-0.3,0.2-0.5,0.3
	c-0.2,0.1-0.3,0.2-0.5,0.2c0,0.1,0,0.1,0,0.2c-0.2,0.8-0.9,1.4-1.8,1.2h0c-0.4-0.1-0.8-0.3-1-0.7c0,0-0.1,0-0.1,0c0,0-0.1,0-0.1,0
	c0,0,0,0,0,0c-0.2,0-0.3,0-0.5-0.1c0,0-0.1,0-0.1,0c-0.1-0.1-0.3-0.1-0.4-0.2c0,0,0,0-0.1-0.1c-0.1-0.1-0.2-0.2-0.3-0.4c0,0,0,0,0,0
	c-0.1-0.2-0.1-0.3-0.1-0.5v0c-0.1-0.7,0.4-1.4,1.1-1.6c0.1,0,0.2,0,0.3-0.1c0.1,0,0.2,0,0.3,0c0-0.1,0-0.1,0-0.2c0-0.1,0-0.2,0-0.3
	c0-0.1,0-0.3-0.1-0.4c0-0.1,0-0.2-0.1-0.3c0-0.1-0.1-0.3-0.1-0.4c0-0.1-0.1-0.2-0.1-0.3c0-0.1-0.1-0.3-0.1-0.4
	c0-0.1-0.1-0.2-0.1-0.3c-0.1-0.1-0.1-0.3-0.2-0.4c0-0.1-0.1-0.2-0.1-0.3c-0.1-0.1-0.1-0.3-0.2-0.4c0-0.1-0.1-0.2-0.1-0.2
	c-0.1-0.1-0.2-0.3-0.3-0.4c0-0.1-0.1-0.1-0.1-0.2c-0.2-0.2-0.3-0.4-0.5-0.5c-2.3-2.3-2.9-5.4-1.6-8.5c-2.8,1.4-4.7,4.5-5.7,9.1
	c-0.1,0.3-0.1,0.7-0.2,1c0,0.1,0,0.2,0,0.3c0,0.2,0,0.5,0,0.7c0,0.1,0,0.3,0,0.4c0,0.2,0,0.4,0.1,0.6c0,0.1,0.1,0.3,0.1,0.4
	c0,0.2,0.1,0.4,0.1,0.6c0,0.1,0.1,0.3,0.2,0.4c0.1,0.2,0.1,0.4,0.2,0.5c0.1,0.1,0.1,0.3,0.2,0.4c0.1,0.2,0.2,0.3,0.3,0.5
	c0.1,0.1,0.2,0.3,0.3,0.4c0.1,0.1,0.2,0.3,0.3,0.4c0.1,0.1,0.2,0.2,0.3,0.3c0.1,0.1,0.2,0.2,0.2,0.2c0.2-0.2,0.4-0.3,0.6-0.5
	c0.1-0.1,0.3-0.2,0.4-0.3c0.4-0.3,0.8-0.6,1.3-0.8c0.4-0.2,0.8-0.2,1.1-0.1c0.4,0.1,0.7,0.4,0.9,0.7c0.4,0.7,0.1,1.7-0.6,2
	c-0.3,0.1-0.5,0.3-0.8,0.5c0,0,0,0,0,0c0.7,0.3,1,1.1,0.8,1.8c-0.1,0.4-0.4,0.7-0.7,0.9c-0.4,0.2-0.8,0.2-1.1,0.1
	c-0.4-0.1-0.9-0.3-1.3-0.5c-0.1,0.1-0.1,0.2-0.2,0.3c-0.1,0.1-0.1,0.2-0.2,0.2c-0.1,0.2-0.3,0.5-0.4,0.7c-0.7,1.5-0.8,2.6-0.2,3.6
	c4.9-0.2,8.5-1.8,10.8-4.7C39.2,22.4,39.9,20,40.2,17.8C40.2,17.7,40.2,17.7,40.2,17.8z M28.5,23.5c0.3,0.1,0.6,0.3,0.9,0.4
	c0.1,0,0.3,0,0.4,0c0.1-0.1,0.2-0.2,0.2-0.3c0.1-0.3-0.1-0.5-0.3-0.6c-0.2,0-0.3-0.1-0.5-0.2C29,22.9,28.7,23.2,28.5,23.5z
	 M35.3,31.6c2.4-0.7,4.4-2.4,5.6-4.7c1.5-2.8,2.9-6.6,2.4-10.2c-0.2,3.1-1.1,6.6-3.3,9.6c-2.1,2.8-5.2,4.6-9.1,5.4
	C32.4,32,33.9,32,35.3,31.6z M16.5,55.9c0.4,0,0.8,0.2,1,0.4c0.3,0.3,0.4,0.7,0.4,1.1c0,0.4-0.2,0.8-0.5,1.1c-0.2,0.3-0.6,0.4-1,0.4
	c-0.4,0-0.8-0.2-1.1-0.4c-0.3-0.3-0.4-0.7-0.4-1.1c0-0.4,0.2-0.8,0.4-1.1C15.7,56.1,16,56,16.5,55.9z"/>
</svg>
