<?xml version="1.0" encoding="utf-8"?>
<!-- Generator: Adobe Illustrator 21.1.0, SVG Export Plug-In . SVG Version: 6.00 Build 0)  -->
<svg version="1.1" id="Layer_1" xmlns="http://www.w3.org/2000/svg" xmlns:xlink="http://www.w3.org/1999/xlink" x="0px" y="0px"
	 viewBox="0 0 50 55" style="enable-background:new 0 0 50 55;" xml:space="preserve">
<style type="text/css">
	.st0{fill-rule:evenodd;clip-rule:evenodd;fill:#FFF200;}
	.st1{fill-rule:evenodd;clip-rule:evenodd;fill:#626365;}
</style>
<path class="st0" d="M25,5c13.8,0,25,11.2,25,25c0,13.8-11.2,25-25,25S0,43.8,0,30C0,16.2,11.2,5,25,5z"/>
<path class="st1" d="M26.8,18.2v10.6h4.4c0.8,0,1.5,0.7,1.5,1.5c0,0.8-0.7,1.5-1.5,1.5h-5.9c-0.8,0-1.5-0.7-1.5-1.5V18.2
	c0-0.8,0.7-1.5,1.5-1.5C26.1,16.7,26.8,17.4,26.8,18.2z M49,40.4C49,46.3,44.2,51,38.4,51c-2.1,0-4-0.6-5.7-1.7
	c-2.3,0.9-4.8,1.4-7.4,1.4C14.1,50.8,5,41.6,5,30.4c0-1.8,0.2-3.6,0.7-5.3c0.2-0.8,1-1.3,1.8-1.1c0.8,0.2,1.3,1,1.1,1.8
	c-0.4,1.5-0.6,3-0.6,4.5c0,9.6,7.8,17.4,17.3,17.4c1.6,0,3.3-0.2,4.8-0.7c-1.5-1.8-2.4-4.1-2.4-6.6c0-5.8,4.8-10.6,10.6-10.6
	c1.5,0,2.9,0.3,4.2,0.9c0-0.1,0-0.2,0-0.4c0-9.6-7.8-17.4-17.3-17.4c-4.9,0-9.5,2.1-12.8,5.7c-0.3,0.3-0.6,0.5-1,0.5
	c-0.4,0-0.8-0.1-1.1-0.4c-0.3-0.3-0.5-0.6-0.5-1c0-0.4,0.1-0.8,0.4-1.1c3.5-3.9,8.4-6.2,13.5-6.6V8.3h-4.4c-0.8,0-1.5-0.7-1.5-1.5
	V1.5c0-0.8,0.7-1.5,1.5-1.5h11.7c0.8,0,1.5,0.7,1.5,1.5v5.3c0,0.8-0.7,1.5-1.5,1.5h-4.4v1.7c10.5,0.8,18.8,9.6,18.8,20.3
	c0,0.7-0.1,1.5-0.1,2.2C47.6,34.5,49,37.3,49,40.4z M29.7,5.3V3h-8.7v2.4H29.7z M38.4,32.8c-4.2,0-7.6,3.4-7.6,7.6
	c0,4.2,3.4,7.6,7.6,7.6c4.2,0,7.6-3.4,7.6-7.6C46,36.2,42.6,32.8,38.4,32.8z M40.5,40.4l2.2,2.2c0.6,0.6,0.6,1.5,0,2.1
	c-0.3,0.3-0.7,0.4-1.1,0.4c-0.4,0-0.8-0.2-1.1-0.4l-2.2-2.2l-2.2,2.2c-0.3,0.3-0.7,0.4-1.1,0.4c-0.4,0-0.8-0.2-1.1-0.4
	c-0.6-0.6-0.6-1.5,0-2.1l2.2-2.2L34,38.2c-0.6-0.6-0.6-1.5,0-2.1c0.6-0.6,1.6-0.6,2.1,0l2.2,2.2l2.2-2.2c0.6-0.6,1.6-0.6,2.1,0
	c0.6,0.6,0.6,1.5,0,2.1L40.5,40.4z M9.7,22.6c-0.3,0.3-0.6,0.4-1.1,0.4c-0.4,0-0.8-0.2-1.1-0.5c-0.3-0.3-0.4-0.6-0.4-1
	c0-0.4,0.2-0.8,0.4-1.1c0.5-0.5,1.6-0.5,2.1,0c0.3,0.3,0.4,0.7,0.4,1.1C10.2,22,10,22.4,9.7,22.6z"/>
</svg>
