<?xml version="1.0" encoding="utf-8"?>
<!-- Generator: Adobe Illustrator 21.1.0, SVG Export Plug-In . SVG Version: 6.00 Build 0)  -->
<svg version="1.1" id="Layer_1" xmlns="http://www.w3.org/2000/svg" xmlns:xlink="http://www.w3.org/1999/xlink" x="0px" y="0px"
	 viewBox="0 0 50 50" style="enable-background:new 0 0 50 50;" xml:space="preserve">
<style type="text/css">
	.st0{fill-rule:evenodd;clip-rule:evenodd;fill:#FFF200;}
	.st1{fill-rule:evenodd;clip-rule:evenodd;fill:#626365;}
</style>
<path class="st0" d="M25,0c13.8,0,25,11.2,25,25c0,13.8-11.2,25-25,25S0,38.8,0,25C0,11.2,11.2,0,25,0z"/>
<path class="st1" d="M11.4,39.6c-0.7,0-1.4-0.6-1.4-1.4c0-0.8,0.6-1.4,1.4-1.4h3.4c0.7,0,1.4,0.6,1.4,1.4c0,0.8-0.6,1.4-1.4,1.4
	H11.4z M19.3,39.6c-0.7,0-1.4-0.6-1.4-1.4c0-0.8,0.6-1.4,1.4-1.4h19.4c0.7,0,1.4,0.6,1.4,1.4c0,0.8-0.6,1.4-1.4,1.4H19.3z M46.6,27
	c-0.4,0-0.7-0.1-1-0.4c-0.3-0.3-0.4-0.6-0.4-1c0-0.4,0.1-0.7,0.4-1c0.5-0.5,1.4-0.5,1.9,0c0.3,0.3,0.4,0.6,0.4,1
	c0,0.4-0.2,0.7-0.4,1C47.4,26.9,47,27,46.6,27z M46.6,22.7c-0.7,0-1.4-0.6-1.4-1.4v-2.3H4.7v24.1h40.6V30c0-0.8,0.6-1.4,1.4-1.4
	c0.7,0,1.4,0.6,1.4,1.4v14.7c0,0.8-0.6,1.4-1.4,1.4H3.4C2.6,46,2,45.4,2,44.6V17.7v-10C2,7,2.6,6.4,3.4,6.4h6.4V4.7
	c0-2.1,1.7-3.7,3.7-3.7c2,0,3.7,1.7,3.7,3.7v1.6h15.8V4.7c0-2.1,1.7-3.7,3.7-3.7c2,0,3.7,1.7,3.7,3.7v1.6h6.4C47.4,6.4,48,7,48,7.7
	v13.6C48,22.1,47.4,22.7,46.6,22.7z M14.4,4.7c0-0.5-0.4-1-1-1c-0.5,0-1,0.4-1,1v6c0,0.5,0.4,1,1,1c0.5,0,1-0.4,1-1V4.7z M37.6,4.7
	c0-0.5-0.4-1-1-1c-0.5,0-1,0.4-1,1v6c0,0.5,0.4,1,1,1c0.5,0,1-0.4,1-1V4.7z M45.3,9.1h-5v1.6c0,2.1-1.7,3.7-3.7,3.7
	c-2,0-3.7-1.7-3.7-3.7V9.1H17.1v1.6c0,2.1-1.7,3.7-3.7,3.7c-2,0-3.7-1.7-3.7-3.7V9.1h-5v7.3h40.6V9.1z"/>
<path class="st1" d="M39.8,30c0,0.4-0.1,0.7-0.2,1.1c-0.1,0.4-0.2,0.7-0.4,1.1c-0.2,0.3-0.4,0.7-0.7,0.9c-0.3,0.3-0.6,0.5-1.1,0.7
	c-0.4,0.2-0.9,0.2-1.5,0.2c-0.6,0-1.1-0.1-1.5-0.2c-0.4-0.2-0.8-0.4-1-0.6c-0.3-0.3-0.5-0.6-0.7-0.9c-0.2-0.3-0.3-0.7-0.4-1.1
	c-0.1-0.4-0.1-0.7-0.2-1.1c0-0.4,0-0.7,0-1c0-0.2,0-0.5,0-0.8c0-0.3,0.1-0.6,0.2-1c0.1-0.3,0.2-0.7,0.4-1c0.2-0.3,0.4-0.7,0.7-0.9
	c0.3-0.3,0.6-0.5,1-0.7c0.4-0.2,0.9-0.3,1.5-0.3c0.9,0,1.5,0.2,2,0.5c0.5,0.3,0.9,0.7,1.2,1.1c0.3,0.5,0.4,1,0.5,1.5
	c0.1,0.5,0.1,1.1,0.1,1.6C39.8,29.3,39.8,29.6,39.8,30z M37.5,27.9c0-0.4-0.1-0.7-0.2-0.9c-0.1-0.3-0.3-0.4-0.5-0.6
	c-0.2-0.1-0.5-0.2-0.8-0.2c-0.3,0-0.6,0.1-0.7,0.2c-0.2,0.2-0.3,0.4-0.5,0.6c-0.1,0.3-0.2,0.6-0.2,0.9c0,0.4-0.1,0.7-0.1,1.2
	c0,0.4,0,0.8,0.1,1.1c0,0.4,0.1,0.7,0.2,0.9c0.1,0.3,0.3,0.5,0.5,0.6c0.2,0.2,0.4,0.2,0.8,0.2c0.3,0,0.6-0.1,0.8-0.2
	c0.2-0.1,0.4-0.3,0.5-0.6c0.1-0.3,0.2-0.6,0.2-0.9c0-0.4,0.1-0.8,0.1-1.2C37.6,28.7,37.5,28.3,37.5,27.9z M30.6,33.8h-6.3
	c-0.2,0-0.3-0.1-0.3-0.3v-1c0-0.1,0-0.2,0-0.3c0-0.1,0.1-0.2,0.2-0.3c0.3-0.3,0.7-0.6,1-0.9c0.1-0.1,0.2-0.2,0.4-0.3
	c0.1-0.1,0.2-0.2,0.3-0.3c0.1-0.1,0.2-0.2,0.3-0.2c0.1-0.1,0.1-0.1,0.1-0.1c0,0,0.1-0.1,0.2-0.2c0.1-0.1,0.3-0.3,0.4-0.4
	c0.2-0.2,0.3-0.3,0.5-0.4c0.1-0.1,0.3-0.2,0.3-0.3c0.2-0.2,0.4-0.4,0.5-0.7c0.1-0.2,0.2-0.5,0.2-0.8c0-0.3-0.1-0.6-0.3-0.7
	c-0.2-0.1-0.5-0.2-1.1-0.2c-0.4,0-0.8,0-1.3,0.1c-0.4,0-0.8,0.1-1.1,0.1c-0.2,0-0.3,0-0.3,0c-0.1,0-0.1-0.1-0.1-0.3l-0.1-0.8
	c0-0.1,0-0.2,0-0.3c0-0.1,0.2-0.2,0.4-0.3c0.2-0.1,0.4-0.1,0.7-0.2c0.3-0.1,0.5-0.1,0.8-0.1c0.3,0,0.5-0.1,0.7-0.1
	c0.2,0,0.4,0,0.5,0c0.6,0,1.2,0.1,1.6,0.2c0.4,0.1,0.8,0.3,1.1,0.5c0.3,0.2,0.5,0.5,0.6,0.8c0.1,0.3,0.2,0.7,0.2,1.1
	c0,0.3,0,0.6-0.1,0.8c-0.1,0.2-0.1,0.5-0.3,0.7c-0.1,0.2-0.3,0.4-0.4,0.6c-0.2,0.2-0.4,0.4-0.6,0.7c-0.2,0.2-0.3,0.3-0.5,0.5
	c-0.1,0.1-0.3,0.3-0.5,0.5c-0.2,0.2-0.3,0.3-0.5,0.5c-0.2,0.2-0.4,0.4-0.7,0.6l0,0.1h3.4c0.1,0,0.2,0,0.2,0.1c0,0,0,0.1,0,0.2v1.2
	c0,0.1,0,0.2,0,0.2C30.8,33.8,30.7,33.8,30.6,33.8z M22.9,30.2h-4.4c-0.2,0-0.3-0.1-0.3-0.3v-1.1c0-0.2,0.1-0.3,0.3-0.3h4.4
	c0.1,0,0.2,0,0.2,0.1c0,0,0.1,0.1,0.1,0.2v1.1c0,0.1,0,0.2-0.1,0.2C23.1,30.1,23,30.2,22.9,30.2z M16.4,33.8h-5.3
	c-0.2,0-0.3-0.1-0.3-0.3v-1.2c0-0.2,0.1-0.3,0.3-0.3h1.5v-5.4h-1.3c-0.1,0-0.2,0-0.3,0c-0.1,0-0.1-0.1-0.1-0.2v-0.7
	c0-0.1,0-0.2,0-0.3c0-0.1,0.1-0.1,0.2-0.2l1.2-0.5c0.2-0.1,0.3-0.1,0.4-0.1c0.1,0,0.3,0,0.4,0h1.1c0.2,0,0.3,0.1,0.3,0.3V32h1.6
	c0.1,0,0.2,0,0.2,0.1c0,0,0.1,0.1,0.1,0.2v1.2c0,0.1,0,0.2,0,0.2C16.6,33.8,16.6,33.8,16.4,33.8z"/>
</svg>
