<?xml version="1.0" encoding="utf-8"?>
<!-- Generator: Adobe Illustrator 21.1.0, SVG Export Plug-In . SVG Version: 6.00 Build 0)  -->
<svg version="1.1" id="Layer_1" xmlns="http://www.w3.org/2000/svg" xmlns:xlink="http://www.w3.org/1999/xlink" x="0px" y="0px"
	 viewBox="0 0 50 50" style="enable-background:new 0 0 50 50;" xml:space="preserve">
<style type="text/css">
	.st0{fill-rule:evenodd;clip-rule:evenodd;fill:#FFF200;}
	.st1{fill-rule:evenodd;clip-rule:evenodd;fill:#626365;}
</style>
<path class="st0" d="M25,0c13.8,0,25,11.2,25,25c0,13.8-11.2,25-25,25S0,38.8,0,25C0,11.2,11.2,0,25,0z"/>
<path class="st1" d="M25,47c-3.9,0-7.6-1-11-2.9l-8.3,2.5c-0.4,0.1-0.9,0-1.2-0.3C4.1,45.9,4,45.5,4.2,45l2.4-8
	C4.2,33.4,3,29.3,3,25C3,12.9,12.9,3,25,3c12.1,0,22,9.9,22,22C47,37.1,37.1,47,25,47z M25,5.5C14.2,5.5,5.5,14.2,5.5,25
	c0,4,1.2,7.8,3.5,11.1c0.2,0.3,0.3,0.7,0.2,1.1l-1.9,6.4l6.7-2c0.1,0,0.2-0.1,0.4-0.1c0.2,0,0.4,0.1,0.6,0.2
	c3.1,1.9,6.6,2.8,10.2,2.8c10.8,0,19.5-8.8,19.5-19.5C44.5,14.2,35.8,5.5,25,5.5z M27.9,29.7v0.7c0,1.6-1.3,2.9-2.9,2.9
	c-1.6,0-2.9-1.3-2.9-2.9v-3.2c0-1.6,1.3-2.9,2.9-2.9c2.4,0,4.3-1.9,4.3-4.3c0-2.4-1.9-4.3-4.3-4.3c-2.4,0-4.3,1.9-4.3,4.3
	c0,1.6-1.3,2.9-2.9,2.9c-1.6,0-2.9-1.3-2.9-2.9C14.9,14.5,19.4,10,25,10c5.6,0,10.1,4.5,10.1,10.1C35.1,24.5,32.1,28.5,27.9,29.7z
	 M25,12.5c-4.2,0-7.6,3.4-7.6,7.6c0,0.2,0.2,0.4,0.4,0.4c0.2,0,0.4-0.2,0.4-0.4c0-3.7,3-6.8,6.8-6.8c3.7,0,6.8,3,6.8,6.8
	c0,3.7-3,6.8-6.8,6.8c-0.2,0-0.4,0.2-0.4,0.4v3.2c0,0.2,0.2,0.4,0.4,0.4c0.2,0,0.4-0.2,0.4-0.4v-1.7c0-0.6,0.4-1.1,1-1.2
	c3.6-0.7,6.2-3.8,6.2-7.5C32.6,15.9,29.2,12.5,25,12.5z M21.7,36.7c0.1-0.3,0.2-0.5,0.4-0.7c0.1-0.2,0.2-0.3,0.4-0.5
	c0.2-0.2,0.3-0.3,0.5-0.4c0.2-0.1,0.4-0.2,0.6-0.3c0.2-0.1,0.4-0.1,0.6-0.2c1.2-0.2,2.4,0.1,3.2,1c0.7,0.7,1,1.6,1,2.5
	c0,0.9-0.4,1.8-1,2.5c-0.7,0.7-1.6,1-2.5,1c-0.2,0-0.4,0-0.7-0.1c-0.3-0.1-0.5-0.1-0.6-0.2c-0.3-0.1-0.5-0.2-0.7-0.4
	c-0.2-0.1-0.3-0.3-0.5-0.4c-0.7-0.7-1-1.6-1-2.5c0-0.2,0-0.4,0.1-0.7C21.6,37.1,21.6,36.9,21.7,36.7z M24.2,38.8
	c0,0,0.1,0.1,0.1,0.1c0.1,0.1,0.2,0.1,0.2,0.1c0,0,0.1,0,0.2,0.1c0,0,0.1,0,0.2,0c0.3,0,0.6-0.1,0.7-0.3c0.2-0.2,0.3-0.5,0.3-0.8
	c0-0.3-0.1-0.5-0.3-0.7C25.5,37.1,25.3,37,25,37c-0.1,0-0.1,0-0.2,0c0,0-0.1,0-0.2,0.1c-0.1,0-0.2,0.1-0.2,0.1c0,0-0.1,0.1-0.1,0.1
	c0,0-0.1,0.1-0.1,0.1c-0.1,0.1-0.1,0.2-0.1,0.2c0,0,0,0.1-0.1,0.2c0,0,0,0.1,0,0.2C23.9,38.3,24,38.6,24.2,38.8z"/>
</svg>
