<svg xmlns="http://www.w3.org/2000/svg" xmlns:xlink="http://www.w3.org/1999/xlink" width="81" height="81" viewBox="0 0 81 81"><defs><path id="iq7la" d="M480 985c-21.5 0-39-17.5-39-39s17.5-39 39-39 39 17.5 39 39-17.5 39-39 39zm0-75c-19.85 0-36 16.15-36 36s16.15 36 36 36 36-16.15 36-36-16.15-36-36-36zm1.5 17.14v17.37h10.68a1.5 1.5 0 0 1 0 3H480a1.5 1.5 0 0 1-1.5-1.5v-18.87a1.5 1.5 0 1 1 3 0zm-1.5 50.74a31.92 31.92 0 0 1-29.94-42.85 1.5 1.5 0 0 1 2.81 1.03A28.91 28.91 0 0 0 480 974.88 28.91 28.91 0 0 0 508.88 946 28.91 28.91 0 0 0 480 917.12c-6.64 0-13.12 2.3-18.25 6.5a1.5 1.5 0 1 1-1.9-2.33 31.94 31.94 0 0 1 20.15-7.17A31.92 31.92 0 0 1 511.88 946 31.92 31.92 0 0 1 480 977.88zm-25.17-47.39a1.49 1.49 0 0 1-1.5-1.5c0-.38.15-.78.44-1.05a1.54 1.54 0 0 1 2.11 0 1.46 1.46 0 0 1 0 2.12c-.27.27-.66.43-1.05.43z"/><path id="iq7lb" d="M480 926a20 20 0 1 1 0 40 20 20 0 0 1 0-40z"/><mask id="iq7ld" width="2" height="2" x="-1" y="-1"><path fill="#fff" d="M441 907h78v78h-78z"/><use xlink:href="#iq7la"/></mask><filter id="iq7lc" width="118" height="128" x="421" y="897" filterUnits="userSpaceOnUse"><feOffset dy="10" in="SourceGraphic" result="FeOffset1053Out"/><feGaussianBlur in="FeOffset1053Out" result="FeGaussianBlur1054Out" stdDeviation="4 4"/></filter></defs><g><g transform="translate(-439 -905)"><use fill="#fff200" xlink:href="#iq7lb"/></g><g transform="translate(-439 -905)"><g filter="url(#iq7lc)"><use fill="none" stroke-opacity=".3" stroke-width="0" mask="url(&quot;#iq7ld&quot;)" xlink:href="#iq7la"/><use fill-opacity=".3" xlink:href="#iq7la"/></g><use fill="#fff" xlink:href="#iq7la"/></g></g></svg>