<svg xmlns="http://www.w3.org/2000/svg" xmlns:xlink="http://www.w3.org/1999/xlink" width="66" height="80" viewBox="0 0 66 80"><defs><path id="lgwqa" d="M1150.94 946.24a49.78 49.78 0 0 1-30.37 38.63 1.5 1.5 0 0 1-1.17 0l-.84-.36a49.8 49.8 0 0 1-30.07-45.61v-19.44c0-.83.68-1.5 1.5-1.5 3.71 0 9.92-1.84 17.97-5.33 6.17-2.67 11.27-5.38 11.32-5.4l.08-.04.1-.04c.34-.12.71-.12 1.05 0l.1.04.09.03c.2.11 20.25 10.74 29.28 10.74.83 0 1.5.67 1.5 1.5v19.44c0 2.43-.18 4.9-.54 7.34zm-29.45 34.93a46.78 46.78 0 0 0 26.16-33.65h-11.18v.05l-.11.81c-.04.25-.07.5-.12.73-.05.27-.12.54-.18.8-.06.24-.11.47-.18.7a16.6 16.6 0 0 1-1.5 3.54l-.35.56c-.15.24-.3.48-.46.7-.11.18-.24.33-.36.5l-.55.7-.26.28a16.7 16.7 0 0 1-1.57 1.56l-.2.18-.78.6-.4.3c-.26.18-.53.35-.8.51-.15.1-.3.2-.46.28a15.81 15.81 0 0 1-2.72 1.24l-.93.3-.5.13c-.33.08-.66.16-1 .22l-.43.07c-.37.06-.74.12-1.12.15zm-3 0v-18.74c-.39-.03-.75-.1-1.12-.15l-.44-.07a16.9 16.9 0 0 1-1-.22l-.5-.13a17.05 17.05 0 0 1-3.65-1.54l-.46-.28c-.27-.16-.54-.33-.8-.51l-.4-.3-.78-.6-.2-.18c-.56-.48-1.08-1-1.57-1.56l-.26-.28-.54-.7c-.13-.17-.25-.32-.37-.5-.16-.22-.31-.46-.46-.7l-.34-.56a16.36 16.36 0 0 1-1.5-3.54l-.19-.7c-.06-.26-.13-.53-.18-.8-.05-.24-.08-.48-.11-.73l-.12-.81v-.05h-11.18a46.8 46.8 0 0 0 26.16 33.65zm0-70.16c-2.12 1.06-5.51 2.72-9.33 4.37-7.57 3.28-13.5 5.13-17.66 5.5v18.02c0 1.86.15 3.75.37 5.62h11.63v-.05c.03-.28.08-.54.12-.82l.1-.73.2-.8a16.1 16.1 0 0 1 1.3-3.5c.11-.25.24-.5.38-.73.1-.2.22-.38.34-.56l.46-.71.37-.49c.18-.24.35-.48.54-.7l.26-.28a16.6 16.6 0 0 1 1.57-1.56l.2-.18c.25-.21.51-.4.78-.6l.4-.3.8-.52.46-.28a17.11 17.11 0 0 1 3.66-1.53l.5-.13 1-.23.43-.06c.37-.06.73-.12 1.11-.15zm1.5 21.52a13.53 13.53 0 0 0-13.55 13.49c0 7.44 6.08 13.49 13.55 13.49 7.47 0 13.55-6.05 13.55-13.5 0-7.43-6.08-13.48-13.55-13.48zm28.48-11.65c-8.25-.76-21.7-7.2-26.98-9.87v18.6c.38.03.75.09 1.12.15l.43.06 1 .23.5.13a16.42 16.42 0 0 1 3.65 1.53l.46.28.8.52.4.3c.27.2.53.39.78.6l.2.18c.56.48 1.08 1 1.58 1.56l.25.28c.2.22.37.46.55.7.12.16.25.32.36.49l.46.7.35.57a16.96 16.96 0 0 1 1.5 3.54c.07.23.12.46.18.7.07.26.13.52.18.8.05.23.08.48.12.72.04.28.08.54.1.82l.01.05h11.63c.23-1.87.37-3.76.37-5.62zm-29.45 29.74a1.5 1.5 0 0 1-2.13 0l-3.05-3.04a1.5 1.5 0 0 1 0-2.11 1.5 1.5 0 0 1 2.13 0l1.98 1.97 6.06-6.03a1.51 1.51 0 0 1 2.13 0 1.5 1.5 0 0 1 0 2.12z"/><path id="lgwqb" d="M1120 926a20 20 0 1 1 0 40 20 20 0 0 1 0-40z"/><mask id="lgwqd" width="2" height="2" x="-1" y="-1"><path fill="#fff" d="M1088 907h64v78h-64z"/><use xlink:href="#lgwqa"/></mask><filter id="lgwqc" width="104" height="128" x="1068" y="897" filterUnits="userSpaceOnUse"><feOffset dy="10" in="SourceGraphic" result="FeOffset1078Out"/><feGaussianBlur in="FeOffset1078Out" result="FeGaussianBlur1079Out" stdDeviation="4 4"/></filter></defs><g><g transform="translate(-1087 -906)"><use fill="#fff200" xlink:href="#lgwqb"/></g><g transform="translate(-1087 -906)"><g filter="url(#lgwqc)"><use fill="none" stroke-opacity=".3" stroke-width="0" mask="url(&quot;#lgwqd&quot;)" xlink:href="#lgwqa"/><use fill-opacity=".3" xlink:href="#lgwqa"/></g><use fill="#fff" xlink:href="#lgwqa"/></g></g></svg>