<?xml version="1.0" encoding="utf-8"?>
<!-- Generator: Adobe Illustrator 21.1.0, SVG Export Plug-In . SVG Version: 6.00 Build 0)  -->
<svg version="1.1" id="Layer_1" xmlns="http://www.w3.org/2000/svg" xmlns:xlink="http://www.w3.org/1999/xlink" x="0px" y="0px"
	 viewBox="0 0 50 63" style="enable-background:new 0 0 50 63;" xml:space="preserve">
<style type="text/css">
	.st0{fill-rule:evenodd;clip-rule:evenodd;fill:#94BEE6;}
	.st1{fill-rule:evenodd;clip-rule:evenodd;fill:#626365;}
</style>
<path class="st0" d="M20,13c8.3,0,15,6.7,15,15s-6.7,15-15,15c-8.3,0-15-6.7-15-15S11.7,13,20,13z"/>
<path class="st1" d="M8.2,11.4h23.1c0.7,0,1.3,0.6,1.3,1.3c0,0.7-0.6,1.3-1.3,1.3H8.2c-0.7,0-1.3-0.6-1.3-1.3
	C6.9,12,7.5,11.4,8.2,11.4z M8.2,20.7h23.1c0.7,0,1.3,0.6,1.3,1.3c0,0.7-0.6,1.3-1.3,1.3H8.2c-0.7,0-1.3-0.6-1.3-1.3
	C6.9,21.3,7.5,20.7,8.2,20.7z M8.2,39.2h11.5c0.7,0,1.3,0.6,1.3,1.3c0,0.7-0.6,1.3-1.3,1.3H8.2c-0.7,0-1.3-0.6-1.3-1.3
	C6.9,39.8,7.5,39.2,8.2,39.2z M8.2,29.9h23.1c0.7,0,1.3,0.6,1.3,1.3c0,0.7-0.6,1.3-1.3,1.3H8.2c-0.7,0-1.3-0.6-1.3-1.3
	C6.9,30.5,7.5,29.9,8.2,29.9z M2.3,9.5c0.2,0.2,0.4,0.6,0.4,0.9c0,0.4-0.1,0.7-0.4,0.9c-0.2,0.2-0.6,0.4-0.9,0.4
	c-0.4,0-0.7-0.1-0.9-0.4C0.1,11.2,0,10.8,0,10.5c0-0.4,0.1-0.7,0.4-0.9C0.9,9,1.8,9,2.3,9.5z M50,52.1c0,6-4.8,10.9-10.7,10.9
	C33.6,63,29,58.6,28.6,53c-0.2,0.2-0.5,0.3-0.8,0.3H1.3c-0.7,0-1.3-0.6-1.3-1.3V13.8c0-0.7,0.6-1.3,1.3-1.3c0.7,0,1.3,0.6,1.3,1.3
	v36.7h25.1c0.3,0,0.6,0.1,0.9,0.3c0.5-4.6,3.9-8.4,8.3-9.4c-0.1-0.2-0.1-0.3-0.1-0.5V2.7H2.6v4.4c0,0.7-0.6,1.3-1.3,1.3
	C0.6,8.5,0,7.9,0,7.1V1.3C0,0.6,0.6,0,1.3,0h36.8c0.7,0,1.3,0.6,1.3,1.3V41c0,0.1,0,0.2,0,0.3C45.3,41.4,50,46.2,50,52.1z
	 M39.3,43.4c-4.8,0-8.6,3.9-8.6,8.7c0,4.8,3.9,8.7,8.6,8.7c4.8,0,8.6-3.9,8.6-8.7C47.9,47.3,44,43.4,39.3,43.4z M40.2,47.7v3.5h1.9
	c0.5,0,1,0.4,1,1c0,0.5-0.4,1-1,1h-2.9c-0.5,0-1-0.4-1-1v-4.5c0-0.5,0.4-1,1-1C39.8,46.7,40.2,47.1,40.2,47.7z M39.3,60.3
	c-4.5,0-8.1-3.7-8.1-8.2c0-1,0.2-1.9,0.5-2.8c0.1-0.2,0.3-0.4,0.5-0.6c0.1-0.1,0.3-0.1,0.4-0.1c-0.1-0.2-0.2-0.4-0.2-0.6
	c0-0.3,0.1-0.5,0.3-0.7c0.2-0.2,0.4-0.3,0.7-0.3c0.3,0,0.5,0.1,0.7,0.3c0.2,0.2,0.3,0.4,0.3,0.7c0,0.3-0.1,0.5-0.3,0.7
	c-0.2,0.2-0.4,0.3-0.7,0.3c0,0,0,0,0,0c0.2,0.3,0.3,0.6,0.1,0.9c-0.2,0.7-0.4,1.4-0.4,2.1c0,3.4,2.8,6.2,6.1,6.2
	c3.4,0,6.1-2.8,6.1-6.2c0-3.4-2.8-6.2-6.1-6.2c-1.4,0-2.8,0.5-3.9,1.4c-0.2,0.2-0.5,0.2-0.7,0.2c-0.3,0-0.5-0.2-0.7-0.4
	c-0.2-0.2-0.2-0.5-0.2-0.7c0-0.3,0.2-0.5,0.4-0.7c1.4-1.2,3.3-1.8,5.1-1.8c4.5,0,8.1,3.7,8.1,8.2C47.3,56.7,43.7,60.3,39.3,60.3z"/>
</svg>
