<?xml version="1.0" encoding="utf-8"?>
<!-- Generator: Adobe Illustrator 21.1.0, SVG Export Plug-In . SVG Version: 6.00 Build 0)  -->
<svg version="1.1" id="Layer_1" xmlns="http://www.w3.org/2000/svg" xmlns:xlink="http://www.w3.org/1999/xlink" x="0px" y="0px"
	 viewBox="0 0 55 47" style="enable-background:new 0 0 55 47;" xml:space="preserve">
<style type="text/css">
	.st0{fill-rule:evenodd;clip-rule:evenodd;fill:#94BEE6;}
	.st1{fill-rule:evenodd;clip-rule:evenodd;fill:#626365;}
</style>
<path class="st0" d="M27,9.3c8.3,0,15,6.7,15,15s-6.7,15-15,15c-8.3,0-15-6.7-15-15S18.7,9.3,27,9.3z"/>
<path class="st1" d="M41.2,47H13.7L0,23.5L13.7,0h27.5L55,23.5L41.2,47z M39.8,2.5H15.2l-12.3,21l12.3,21h24.6l12.3-21L39.8,2.5z
	 M45.9,23.5c-0.5,0.8-1.7,1.4-3.3,1.4h-1.3v4.2c0,0.3-0.2,0.4-0.5,0.4h-2.1c-0.4,0-0.5-0.1-0.5-0.4V17.4c0-0.3,0.2-0.4,0.5-0.4h3.1
	c3.2,0,4.8,1.3,4.8,3.9C46.7,21.9,46.5,22.7,45.9,23.5z M42.3,19.5h-0.9v2.9h0.9c0.9,0,1.3-0.5,1.3-1.5C43.6,20,43.1,19.5,42.3,19.5
	z M31.7,29.6c-1.7,0-3-0.6-3.7-1.4c-0.3-0.4-0.6-0.9-0.8-1.6c-0.4-1.3-0.4-2.2-0.4-3.5c0-0.4,0-0.9,0.1-1.3c0.1-0.8,0.3-1.9,0.7-2.7
	c0.7-1.2,1.9-2.3,4.1-2.2c1.7,0,2.9,0.5,3.6,1.3c0.4,0.4,0.6,0.8,0.9,1.4c0.4,1.1,0.5,2.1,0.5,3.5c0,1.3-0.1,2.3-0.5,3.5
	C35.7,28.4,34.4,29.5,31.7,29.6z M31.7,19.5c-1.3,0-1.7,1.2-1.7,3.8c0,2.6,0.4,3.7,1.7,3.7c1.3,0,1.8-1.1,1.8-3.7
	C33.5,20.6,33.1,19.5,31.7,19.5z M25.7,19.5h-2.2V29c0,0.2,0,0.4-0.5,0.4h-2c-0.4,0-0.5-0.1-0.5-0.4v-9.5h-2.2
	c-0.5,0-0.5-0.1-0.5-0.4v-1.7c0-0.3,0.1-0.4,0.5-0.4h7.5c0.3,0,0.5,0.2,0.5,0.4v1.7C26.3,19.4,26.1,19.5,25.7,19.5z M13.2,21.8
	c0.5,0.1,0.9,0.2,1.2,0.3c0.6,0.2,1.5,0.6,2,1.1c0.5,0.5,0.8,1.4,0.8,2.5c0,3-2.2,3.9-4.5,3.9c-1.4,0-2.5-0.2-3.4-0.6
	c-0.6-0.2-0.7-0.4-0.6-0.8l0.2-1.1c0.1-0.5,0.2-0.5,0.9-0.4C11,26.9,12,27,12.7,27c0.9,0,1.4-0.4,1.4-1.2c0-0.8-0.3-1.1-1.3-1.3
	c-0.9-0.2-1.5-0.4-2.2-0.8c-1.1-0.6-1.7-1.4-1.7-3c0-2.4,1.6-3.8,4.2-3.8c1.3,0,2.4,0.2,3.2,0.5c0.6,0.2,0.7,0.4,0.6,0.8l-0.2,1.1
	c-0.1,0.4-0.3,0.5-0.8,0.4c-1-0.2-1.8-0.2-2.5-0.2c-0.9,0-1.3,0.4-1.3,1.1c0,0.4,0.1,0.6,0.3,0.8C12.4,21.5,12.7,21.7,13.2,21.8z"/>
</svg>
