<?xml version="1.0" encoding="utf-8"?>
<!-- Generator: Adobe Illustrator 21.1.0, SVG Export Plug-In . SVG Version: 6.00 Build 0)  -->
<svg version="1.1" id="Layer_1" xmlns="http://www.w3.org/2000/svg" xmlns:xlink="http://www.w3.org/1999/xlink" x="0px" y="0px"
	 viewBox="0 0 47 47" style="enable-background:new 0 0 47 47;" xml:space="preserve">
<style type="text/css">
	.st0{fill-rule:evenodd;clip-rule:evenodd;fill:#94BEE6;}
	.st1{fill-rule:evenodd;clip-rule:evenodd;fill:#626365;}
</style>
<path class="st0" d="M23,8c8.3,0,15,6.7,15,15c0,8.3-6.7,15-15,15c-8.3,0-15-6.7-15-15C8,14.7,14.7,8,23,8z"/>
<path class="st1" d="M23.5,47C10.5,47,0,36.5,0,23.5S10.5,0,23.5,0C36.5,0,47,10.5,47,23.5S36.5,47,23.5,47z M38.4,37.6l-0.8,0.8
	C37.8,38.1,38.1,37.8,38.4,37.6z M3,23.5C3,34.8,12.2,44,23.5,44c4.6,0,8.9-1.6,12.3-4.1l-6.2-6.2c-0.1,0.1-0.1,0.1-0.2,0.1
	c-0.1,0.1-0.2,0.1-0.3,0.1c-0.3,0-0.5-0.1-0.7-0.4l-0.9-1.7c-0.8,0.4-1.7,0.7-2.6,0.8l0.1,1.5c0,0.4-0.3,0.8-0.7,0.8c0,0,0,0,0,0
	c-0.4,0-0.7-0.3-0.7-0.7l-0.1-1.6c-0.2,0-0.4,0-0.6,0c-0.7-0.1-1.4-0.3-2.1-0.5l-1.2,2.4C19.5,34.9,19.2,35,19,35
	c-0.1,0-0.2,0-0.3-0.1c-0.4-0.2-0.5-0.6-0.3-1l1.1-2.2c-0.8-0.4-1.6-0.8-2.2-1.4l-2,2.1c-0.1,0.2-0.3,0.2-0.5,0.2
	c-0.2,0-0.4-0.1-0.5-0.2c-0.3-0.3-0.3-0.7,0-1l2-2.1c-0.6-0.7-1.1-1.4-1.4-2.1L12,28.1c-0.1,0-0.1,0-0.2,0c-0.3,0-0.6-0.2-0.7-0.5
	c-0.1-0.4,0.1-0.8,0.5-0.9l2.8-0.9c-0.1-0.7-0.2-1.4-0.1-2.1c0.1-0.5,0.2-1,0.3-1.4l-2.6-0.4c-0.4-0.1-0.7-0.4-0.6-0.8
	c0.1-0.4,0.4-0.7,0.8-0.6l2.8,0.5c0.2-0.4,0.4-0.9,0.6-1.3l-8.4-8.4C4.5,14.6,3,18.9,3,23.5z M29.4,24.1c-0.6-3.1-2.5-6.4-6.2-6.4
	c-1,0-1.9,0.2-2.7,0.7l2.7,2.7c0.2-0.5,0.7-0.9,1.4-0.9c0.8,0,1.5,0.7,1.5,1.5c0,0.6-0.4,1.1-0.9,1.4l0.8,0.8c0.1,0,0.2-0.1,0.4-0.1
	c0.6,0,1.1,0.5,1.1,1.1c0,0.1,0,0.3-0.1,0.4l1.7,1.7C29.4,26,29.5,25.1,29.4,24.1z M16.9,24c-0.2,1.9,0.7,3.2,1.6,3.9
	c1.2,1.1,2.9,1.8,4.8,2.1c0.8,0.1,1.6,0,2.4-0.3L22.9,27c-0.1,0-0.3,0.1-0.4,0.1c-0.8,0-1.5-0.7-1.5-1.5c0-0.1,0-0.3,0.1-0.4
	l-1.6-1.6c-0.2-0.1-0.3-0.3-0.4-0.4l-1.5-1.5C17.3,22.3,17,23.1,16.9,24z M8.6,9.4l0.8-0.8C9.1,8.9,8.9,9.2,8.6,9.4z M23.5,3
	c-5.1,0-9.8,1.9-13.4,5l8.4,8.4c0.4-0.2,0.8-0.4,1.2-0.6l-0.9-2.6c-0.1-0.4,0.1-0.8,0.5-0.9c0.4-0.1,0.8,0.1,0.9,0.5l0.9,2.6
	c0.6-0.2,1.3-0.3,2-0.3l0.3-2.4c0-0.4,0.4-0.7,0.8-0.6c0.4,0,0.7,0.4,0.7,0.8l-0.3,2.3c0.7,0.1,1.4,0.4,2.1,0.7l1.5-2.3
	c0.2-0.3,0.7-0.4,1-0.2c0.3,0.2,0.4,0.7,0.2,1l-1.4,2.3c0.6,0.4,1.1,0.9,1.5,1.4l2.3-1.6c0.3-0.2,0.8-0.2,1,0.2
	c0.2,0.3,0.2,0.8-0.2,1l-2.3,1.6c0.5,0.7,0.8,1.5,1.2,2.4l2.2-0.7c0.4-0.1,0.8,0.1,0.9,0.5c0.1,0.4-0.1,0.8-0.5,0.9L31.9,23
	c0.1,0.2,0.1,0.4,0.1,0.6c0.1,0.5,0.1,1,0.1,1.6l2.3,0.4c0.4,0.1,0.7,0.4,0.6,0.8c-0.1,0.4-0.4,0.6-0.7,0.6c0,0-0.1,0-0.1,0
	l-2.2-0.4c-0.2,0.7-0.4,1.3-0.8,1.9l2,1.5c0.3,0.2,0.4,0.7,0.1,1c0,0,0,0-0.1,0.1l5.8,5.8c3.1-3.6,5-8.3,5-13.4
	C44,12.2,34.8,3,23.5,3z"/>
</svg>
