<?xml version="1.0" encoding="utf-8"?>
<!-- Generator: Adobe Illustrator 21.1.0, SVG Export Plug-In . SVG Version: 6.00 Build 0)  -->
<svg version="1.1" id="Layer_1" xmlns="http://www.w3.org/2000/svg" xmlns:xlink="http://www.w3.org/1999/xlink" x="0px" y="0px"
	 viewBox="0 0 50 49" style="enable-background:new 0 0 50 49;" xml:space="preserve">
<style type="text/css">
	.st0{fill-rule:evenodd;clip-rule:evenodd;fill:#94BEE6;}
	.st1{fill-rule:evenodd;clip-rule:evenodd;fill:#626365;}
</style>
<path class="st0" d="M20.1,6.3c8.3,0,15,6.7,15,15c0,8.3-6.7,15-15,15s-15-6.7-15-15C5.1,13,11.8,6.3,20.1,6.3z"/>
<path class="st1" d="M40.3,49c-5.3,0-9.7-4.3-9.7-9.7c0-5.3,4.4-9.7,9.7-9.7c5.4,0,9.7,4.3,9.7,9.7C50,44.7,45.7,49,40.3,49z
	 M40.3,31.6c-4.3,0-7.7,3.5-7.7,7.7c0,4.3,3.5,7.7,7.7,7.7c4.3,0,7.7-3.5,7.7-7.7C48,35.1,44.6,31.6,40.3,31.6z M41.7,41l-0.5,0.5
	c-0.5,0.5-1.2,0.5-1.7,0L38.9,41L37,39c-0.4-0.4-0.4-1,0-1.4c0.4-0.4,1-0.4,1.4,0l1.1,1.1c0.5,0.5,1.2,0.5,1.7,0l1.1-1.1
	c0.4-0.4,1-0.4,1.4,0c0.4,0.4,0.4,1,0,1.4L41.7,41z M27.7,41.5H13.9V27.7H0V13.9h13.9V0h13.8v13.9h13.9v13.8H27.7V41.5z M39.1,25.2
	v-8.8H25.2V2.5h-8.8v13.9H2.5v8.8h13.9v13.9h8.8V25.2H39.1z"/>
</svg>
