<?xml version="1.0" encoding="utf-8"?>
<!-- Generator: Adobe Illustrator 21.1.0, SVG Export Plug-In . SVG Version: 6.00 Build 0)  -->
<svg version="1.1" id="Layer_1" xmlns="http://www.w3.org/2000/svg" xmlns:xlink="http://www.w3.org/1999/xlink" x="0px" y="0px"
	 viewBox="0 0 47 48" style="enable-background:new 0 0 47 48;" xml:space="preserve">
<style type="text/css">
	.st0{fill-rule:evenodd;clip-rule:evenodd;fill:#FFF200;}
	.st1{fill-rule:evenodd;clip-rule:evenodd;fill:#626365;}
</style>
<path class="st0" d="M23.5,1C36.5,1,47,11.5,47,24.5C47,37.5,36.5,48,23.5,48C10.5,48,0,37.5,0,24.5C0,11.5,10.5,1,23.5,1z"/>
<path class="st1" d="M34.7,28.3c-3.1,2.8-4.8,6.6-4.8,10.5c0,0.7-0.6,1.3-1.3,1.3s-1.3-0.6-1.3-1.3c0-4.6,2.1-9.1,5.7-12.4
	c2.8-2.6,4.4-6.2,4.4-10S35.8,9,33,6.4c-2.8-2.6-6.4-3.9-10.3-3.7c-3.3,0.2-6.4,1.5-8.8,3.8c-0.5,0.4-1.1,0.5-1.6,0.2
	c0.1,0.2,0.1,0.4,0.1,0.6c0,0.3-0.1,0.7-0.4,0.9c-0.3,0.3-0.6,0.4-0.9,0.4c-0.3,0-0.7-0.1-0.9-0.4C9.9,7.9,9.8,7.5,9.8,7.2
	c0-0.3,0.1-0.7,0.4-0.9c0.5-0.4,1.2-0.5,1.7-0.2c-0.3-0.5-0.2-1.1,0.3-1.5C15,1.8,18.7,0.2,22.6,0c4.6-0.2,8.9,1.3,12.3,4.4
	c3.3,3.1,5.2,7.3,5.2,11.8C40,20.8,38.1,25.2,34.7,28.3z M10.4,8.7c0.3,0.2,0.6,0.4,0.7,0.8c0.1,0.3,0.1,0.7-0.1,1
	c-0.8,1.7-1.3,3.5-1.4,5.4c-0.1,3.9,1.5,7.7,4.3,10.4c3.4,3.1,5.4,7.2,5.7,11.5h3.7c0.7,0,1.3,0.6,1.3,1.3c0,0.7-0.6,1.3-1.3,1.3h-5
	c-0.7,0-1.3-0.6-1.3-1.3V39c0-4-1.7-7.9-4.9-10.9C8.7,25,6.8,20.4,7,15.8c0.1-2.3,0.6-4.4,1.6-6.5C8.8,9,9,8.7,9.4,8.6
	C9.7,8.5,10.1,8.5,10.4,8.7z M26.8,31.7c0,1.8-1.5,3.3-3.3,3.3c-1.8,0-3.3-1.5-3.3-3.3c0-1.8,1.5-3.3,3.3-3.3
	C25.3,28.4,26.8,29.9,26.8,31.7z M22.9,31.7c0,0.3,0.3,0.6,0.6,0.6c0.3,0,0.6-0.3,0.6-0.6c0-0.3-0.3-0.6-0.6-0.6
	C23.1,31.1,22.9,31.3,22.9,31.7z M24.6,5.9c0-0.7,0.6-1.3,1.3-1.3c4.4,0,8,3.5,8,7.9c0,0.7-0.6,1.3-1.3,1.3c-0.7,0-1.3-0.6-1.3-1.3
	c0-2.9-2.4-5.3-5.3-5.3C25.2,7.2,24.6,6.6,24.6,5.9z M25.7,28h-4.3c-0.7,0-1.2-0.5-1.3-1.1l-2.2-14.5c-0.1-0.4,0.1-0.8,0.3-1.1
	c0.3-0.3,0.6-0.5,1-0.5h8.7c0.4,0,0.8,0.2,1,0.5c0.3,0.3,0.4,0.7,0.3,1.1L27,26.9C26.9,27.5,26.3,28,25.7,28z M20.7,13.5l1.8,11.9h2
	l1.8-11.9H20.7z M19.9,41.5h7.2c0.7,0,1.3,0.6,1.3,1.3c0,0.7-0.6,1.3-1.3,1.3h-7.2c-0.7,0-1.3-0.6-1.3-1.3
	C18.6,42.1,19.2,41.5,19.9,41.5z M22.1,45.4H25c0.7,0,1.3,0.6,1.3,1.3c0,0.7-0.6,1.3-1.3,1.3h-2.8c-0.7,0-1.3-0.6-1.3-1.3
	C20.8,46,21.4,45.4,22.1,45.4z"/>
</svg>
