<?xml version="1.0" encoding="utf-8"?>
<!-- Generator: Adobe Illustrator 21.1.0, SVG Export Plug-In . SVG Version: 6.00 Build 0)  -->
<svg version="1.1" id="Layer_1" xmlns="http://www.w3.org/2000/svg" xmlns:xlink="http://www.w3.org/1999/xlink" x="0px" y="0px"
	 viewBox="0 0 47 47" style="enable-background:new 0 0 47 47;" xml:space="preserve">
<style type="text/css">
	.st0{fill-rule:evenodd;clip-rule:evenodd;fill:#FFF200;}
	.st1{fill-rule:evenodd;clip-rule:evenodd;fill:#626365;}
</style>
<path class="st0" d="M23.5,0C36.5,0,47,10.5,47,23.5C47,36.5,36.5,47,23.5,47C10.5,47,0,36.5,0,23.5C0,10.5,10.5,0,23.5,0z"/>
<path class="st1" d="M27.9,36.5h-9.3H9.3c-0.7,0-1.2-0.5-1.2-1.2v-6.2v-6.2c0-0.7,0.5-1.2,1.2-1.2h9.3h9.3h9.3
	c0.7,0,1.2,0.5,1.2,1.2v6.2v6.2c0,0.7-0.5,1.2-1.2,1.2H27.9z M17.4,24.1h-6.9v3.8h6.9V24.1z M17.4,30.3h-6.9v3.8h6.9V30.3z
	 M26.7,24.1h-6.9v3.8h6.9V24.1z M26.7,30.3h-6.9v3.8h6.9V30.3z M36,24.1h-6.9v3.8H36V24.1z M36,30.3h-6.9v3.8H36V30.3z M42.7,25.5
	c-0.3,0-0.6-0.1-0.9-0.4c-0.2-0.2-0.3-0.5-0.3-0.8c0-0.3,0.1-0.6,0.4-0.8c0.5-0.4,1.2-0.4,1.7,0c0.2,0.2,0.3,0.5,0.3,0.8
	c0,0.3-0.1,0.6-0.3,0.8C43.3,25.4,43,25.5,42.7,25.5z M43.9,40.8c0,0.7-0.5,1.2-1.2,1.2H4.3c-0.7,0-1.2-0.5-1.2-1.2V17.4V8.7
	c0-0.7,0.5-1.2,1.2-1.2H10V6.1c0-1.8,1.5-3.3,3.3-3.3c1.8,0,3.3,1.5,3.3,3.3v1.4h14V6.1c0-1.8,1.5-3.3,3.3-3.3
	c1.8,0,3.3,1.5,3.3,3.3v1.4h5.7c0.7,0,1.2,0.5,1.2,1.2v11.9c0,0.7-0.5,1.2-1.2,1.2c-0.7,0-1.2-0.5-1.2-1.2v-2h-36v21h36V28
	c0-0.7,0.5-1.2,1.2-1.2c0.7,0,1.2,0.5,1.2,1.2V40.8z M14.1,6.1c0-0.5-0.4-0.9-0.9-0.9c-0.5,0-0.9,0.4-0.9,0.9v5.2
	c0,0.5,0.4,0.9,0.9,0.9c0.5,0,0.9-0.4,0.9-0.9V6.1z M34.6,6.1c0-0.5-0.4-0.9-0.9-0.9c-0.5,0-0.9,0.4-0.9,0.9v5.2
	c0,0.5,0.4,0.9,0.9,0.9c0.5,0,0.9-0.4,0.9-0.9V6.1z M41.5,16.2V9.9H37v1.4c0,1.8-1.5,3.3-3.3,3.3c-1.8,0-3.3-1.5-3.3-3.3V9.9h-14
	v1.4c0,1.8-1.5,3.3-3.3,3.3c-1.8,0-3.3-1.5-3.3-3.3V9.9H5.5v6.3H41.5z"/>
</svg>
