<?xml version="1.0" encoding="utf-8"?>
<!-- Generator: Adobe Illustrator 21.1.0, SVG Export Plug-In . SVG Version: 6.00 Build 0)  -->
<svg version="1.1" id="Layer_1" xmlns="http://www.w3.org/2000/svg" xmlns:xlink="http://www.w3.org/1999/xlink" x="0px" y="0px"
	 viewBox="0 0 53.5 65" style="enable-background:new 0 0 53.5 65;" xml:space="preserve">
<style type="text/css">
	.st0{fill-rule:evenodd;clip-rule:evenodd;fill:#FFF200;}
	.st1{fill:#626365;}
</style>
<path class="st0" d="M26.2,11.5c13.8,0,25,11.2,25,25s-11.2,25-25,25s-25-11.2-25-25S12.4,11.5,26.2,11.5z"/>
<path class="st1" d="M6.8,34.8c0.4,3.3,3.2,5.8,6.6,5.8c1.6,0,3-0.5,4.1-1.4c0.5,0.6,1.1,1.2,1.7,1.7c-0.2,4.8-2.3,6.4-4.8,8.2
	c-3.1,2.3-7,5.2-7.7,14.3c-0.1,0.8,0.5,1.5,1.3,1.5c0,0,0.1,0,0.1,0c0.7,0,1.4-0.6,1.4-1.3c0.6-7.8,3.5-10,6.5-12.3
	c0.4-0.3,0.7-0.5,1.1-0.8c1.3,3.2,5.2,5.6,9.6,5.6c4.4,0,8.2-2.3,9.6-5.5c0.3,0.2,0.6,0.5,0.9,0.7c3.1,2.3,5.9,4.4,6.5,12.3
	c0.1,0.8,0.7,1.3,1.4,1.3c0,0,0.1,0,0.1,0c0.8-0.1,1.4-0.7,1.3-1.5c-0.7-9.1-4.5-12-7.7-14.3c-2.5-1.9-4.6-3.4-4.8-8.2
	c0.6-0.5,1.2-1.1,1.7-1.7c1.2,0.9,2.6,1.4,4.1,1.4c3.4,0,6.2-2.5,6.6-5.8c4-1.3,6.8-5,6.8-9.2c0-4.8-3.5-8.8-8.1-9.5
	C43.7,6.8,36.2,0,27.6,0C19,0,11.5,6.7,9.8,15.9c0,0-0.1,0-0.1,0c-5.4,0-9.7,4.3-9.7,9.7C0,29.8,2.8,33.5,6.8,34.8z M26.9,53.3
	c-3.7,0-7.1-2.3-7.3-5c1.1-1.3,2-3.1,2.3-5.6c1.5,0.8,3.1,1.2,4.8,1.2c1.7,0,3.3-0.4,4.8-1.2c0.4,2.7,1.3,4.5,2.6,5.9
	C33.7,51.1,30.5,53.3,26.9,53.3z M26.7,41.1c-5.1,0-11.2-6.6-11.2-14.8c0-0.4,0-0.9,0.1-1.4c0.2,0,0.4,0,0.6,0
	c6.6,0,12.6-3.7,15.5-9.5c3.7,2.1,6.1,6.2,6.1,10.8C37.9,34.5,31.8,41.1,26.7,41.1z M9.7,18.7c0.3,0,0.7,0,1.1,0.1
	c0.4,0.1,0.8,0,1.1-0.3c0.3-0.2,0.5-0.6,0.6-1C13.5,9.2,20,2.9,27.6,2.9c7.5,0,14,6.3,15.1,14.6c0.1,0.7,0.7,1.2,1.4,1.2
	c3.7,0.1,6.6,3.1,6.6,6.8c0,3.3-2.3,6.1-5.6,6.7c-0.7,0.1-1.2,0.8-1.2,1.5l0,0.1c0,0,0,0.1,0,0.1c0,2.1-1.7,3.8-3.8,3.8
	c-0.9,0-1.8-0.3-2.4-0.9c2-3.2,3.1-7,3.1-10.5c0-6.3-3.7-11.9-9.2-14.1c-0.7-0.3-1.6,0.1-1.9,0.8c-2.2,5.5-7.5,9.1-13.5,9.1
	c-0.5,0-1.1,0-1.6-0.1c-0.7-0.1-1.4,0.4-1.6,1.1c-0.2,1.1-0.3,2.1-0.3,3.2c0,3.5,1.2,7.3,3.1,10.5c-0.7,0.6-1.5,0.9-2.4,0.9
	c-2.1,0-3.8-1.7-3.8-3.8c0,0,0-0.1,0-0.1l0-0.1c0-0.7-0.5-1.4-1.2-1.5c-3.2-0.6-5.6-3.4-5.6-6.7C2.9,21.8,5.9,18.7,9.7,18.7z"/>
</svg>
