<?xml version="1.0" encoding="utf-8"?>
<!-- Generator: Adobe Illustrator 21.1.0, SVG Export Plug-In . SVG Version: 6.00 Build 0)  -->
<svg version="1.1" id="Layer_1" xmlns="http://www.w3.org/2000/svg" xmlns:xlink="http://www.w3.org/1999/xlink" x="0px" y="0px"
	 viewBox="0 0 50 50" style="enable-background:new 0 0 50 50;" xml:space="preserve">
<style type="text/css">
	.st0{fill-rule:evenodd;clip-rule:evenodd;fill:#FFF200;}
	.st1{fill-rule:evenodd;clip-rule:evenodd;fill:#626365;}
</style>
<path class="st0" d="M25,0c13.8,0,25,11.2,25,25c0,13.8-11.2,25-25,25S0,38.8,0,25C0,11.2,11.2,0,25,0z"/>
<path class="st1" d="M44.8,42H31c-0.7,0-1.2-0.5-1.2-1.2V39c0-1.1,0.7-2,1.6-2.4l3.9-1.7v-0.4c-0.8-0.6-1.4-1.3-1.7-2.2
	c-0.8-0.4-1.4-1.3-1.4-2.4c0-0.9,0.4-1.6,0.9-2.1c0.2-2.2,2-3.9,4.2-3.9h1c2.2,0,4,1.7,4.2,3.9c0.6,0.5,0.9,1.2,0.9,2.1
	c0,1.1-0.5,2-1.4,2.4c-0.4,0.9-1,1.6-1.7,2.2v0.4l4,1.8C45.4,37,46,38,46,39v1.8C46,41.5,45.5,42,44.8,42z M43.6,39
	c0-0.1,0-0.1-0.1-0.2L39.3,37c-0.7-0.3-1.3-1.1-1.3-1.9v-0.8c0-0.7,0.3-1.3,0.9-1.7c0.6-0.4,1-1,1.2-1.7c0.1-0.5,0.5-0.8,1-0.9
	c0,0,0-0.1,0-0.1c0-0.1,0-0.1,0-0.1c-0.5-0.1-0.9-0.6-0.9-1.2v-0.3c0-1-0.8-1.9-1.9-1.9h-1c-1,0-1.9,0.8-1.9,1.9v0.3
	c0,0.6-0.4,1-0.9,1.2c0,0,0,0.1,0,0.1c0,0,0,0.1,0,0.1c0.5,0.1,0.9,0.4,1,0.9c0.2,0.7,0.6,1.3,1.2,1.7c0.6,0.4,0.9,1,0.9,1.7v0.8
	c0,0.9-0.5,1.6-1.3,1.9l-4.1,1.8c-0.1,0-0.2,0.1-0.2,0.2v0.6h11.4V39z M31.9,22H18.1c-0.7,0-1.2-0.5-1.2-1.2V19c0-1.1,0.7-2,1.6-2.4
	l3.9-1.7v-0.4c-0.8-0.6-1.4-1.3-1.7-2.2c-0.8-0.4-1.4-1.3-1.4-2.4c0-0.9,0.4-1.6,0.9-2.1c0.2-2.2,2-3.9,4.2-3.9h1
	c2.2,0,4,1.7,4.2,3.9c0.6,0.5,0.9,1.2,0.9,2.1c0,1.1-0.5,2-1.4,2.4c-0.4,0.9-1,1.6-1.7,2.2v0.4l4,1.8c0.9,0.4,1.6,1.3,1.6,2.4v1.8
	C33.1,21.5,32.6,22,31.9,22z M30.7,19c0-0.1,0-0.1-0.1-0.2L26.4,17c-0.7-0.3-1.3-1.1-1.3-1.9v-0.8c0-0.7,0.3-1.3,0.9-1.7
	c0.6-0.4,1-1,1.2-1.7c0.1-0.5,0.5-0.8,1-0.9c0,0,0-0.1,0-0.1c0-0.1,0-0.1,0-0.1c-0.5-0.1-0.9-0.6-0.9-1.2V8.3c0-1-0.8-1.9-1.9-1.9
	h-1c-1,0-1.9,0.9-1.9,1.9v0.3c0,0.6-0.4,1-0.9,1.2c0,0,0,0.1,0,0.1c0,0,0,0.1,0,0.1c0.5,0.1,0.9,0.4,1,0.9c0.2,0.7,0.6,1.3,1.2,1.7
	c0.6,0.4,0.9,1,0.9,1.7v0.8c0,0.9-0.5,1.6-1.3,1.9l-4.1,1.8c-0.1,0-0.2,0.1-0.2,0.2v0.6h11.4V19z M16.4,32.3c-0.4,0.9-1,1.6-1.7,2.2
	v0.4l4,1.8c0.9,0.4,1.6,1.3,1.6,2.4v1.8c0,0.7-0.5,1.2-1.2,1.2H5.2C4.5,42,4,41.5,4,40.8V39c0-1.1,0.7-2,1.6-2.4l3.9-1.7v-0.4
	c-0.8-0.6-1.4-1.3-1.7-2.2C7,31.9,6.4,31,6.4,29.9c0-0.9,0.4-1.6,0.9-2.1c0.2-2.2,2-3.9,4.2-3.9h1c2.2,0,4,1.7,4.2,3.9
	c0.6,0.5,0.9,1.2,0.9,2.1C17.7,31,17.2,31.9,16.4,32.3z M15.3,29.8c-0.5-0.1-0.9-0.6-0.9-1.2v-0.3c0-1-0.8-1.9-1.9-1.9h-1
	c-1,0-1.9,0.8-1.9,1.9v0.3c0,0.6-0.4,1-0.9,1.2c0,0,0,0.1,0,0.1c0,0,0,0.1,0,0.1c0.5,0.1,0.9,0.4,1,0.9c0.2,0.7,0.6,1.3,1.2,1.7
	c0.6,0.4,0.9,1,0.9,1.7v0.8c0,0.9-0.5,1.6-1.3,1.9l-4.1,1.8c-0.1,0-0.2,0.1-0.2,0.2v0.6h11.4V39c0-0.1,0-0.1-0.1-0.2L13.5,37
	c-0.7-0.3-1.3-1.1-1.3-1.9v-0.8c0-0.7,0.3-1.3,0.9-1.7c0.6-0.4,1-1,1.2-1.7c0.1-0.5,0.5-0.8,1-0.9c0,0,0-0.1,0-0.1
	C15.3,29.9,15.3,29.8,15.3,29.8z M18.8,32.8c-0.3-0.6-0.2-1.3,0.4-1.6l4.6-2.8v-4.4c0-0.7,0.5-1.2,1.2-1.2c0.7,0,1.2,0.5,1.2,1.2
	v4.4l4.6,2.8c0.6,0.3,0.7,1.1,0.4,1.6c-0.2,0.4-0.6,0.6-1,0.6c-0.2,0-0.4-0.1-0.6-0.2L25,30.4l-4.6,2.8c-0.2,0.1-0.4,0.2-0.6,0.2
	C19.4,33.4,19,33.2,18.8,32.8z"/>
</svg>
