<?xml version="1.0" encoding="utf-8"?>
<!-- Generator: Adobe Illustrator 21.1.0, SVG Export Plug-In . SVG Version: 6.00 Build 0)  -->
<svg version="1.1" id="Layer_1" xmlns="http://www.w3.org/2000/svg" xmlns:xlink="http://www.w3.org/1999/xlink" x="0px" y="0px"
	 viewBox="0 0 50 50" style="enable-background:new 0 0 50 50;" xml:space="preserve">
<style type="text/css">
	.st0{fill-rule:evenodd;clip-rule:evenodd;fill:#FFF200;}
	.st1{fill-rule:evenodd;clip-rule:evenodd;fill:#626365;}
</style>
<path class="st0" d="M25,0c13.8,0,25,11.2,25,25c0,13.8-11.2,25-25,25S0,38.8,0,25C0,11.2,11.2,0,25,0z"/>
<path class="st1" d="M27.4,16.1c1.7,0,3,1.4,3,3.1v5.1c0,1.7-1.4,3.1-3,3.1h-5c-1.7,0-3-1.4-3-3.1v-5.1c0-1.7,1.4-3.1,3-3.1H27.4z
	 M22.1,19.2v5.1c0,0.2,0.2,0.4,0.4,0.4h5c0.2,0,0.4-0.2,0.4-0.4v-5.1c0-0.2-0.2-0.4-0.4-0.4h-5C22.2,18.8,22.1,18.9,22.1,19.2z
	 M9.7,31.7c0.2,0.3,0.4,0.6,0.4,1c0,0.4-0.1,0.7-0.4,1C9.5,33.9,9.1,34,8.8,34c-0.4,0-0.7-0.1-0.9-0.4c-0.2-0.2-0.4-0.6-0.4-0.9
	c0-0.4,0.1-0.7,0.4-1C8.3,31.2,9.2,31.2,9.7,31.7z M47.9,22.7c-0.2,0.5-0.7,0.9-1.3,0.9h-4.2v21.1c0,0.7-0.6,1.4-1.3,1.4H8.8
	c-0.7,0-1.3-0.6-1.3-1.4v-7.9c0-0.7,0.6-1.4,1.3-1.4s1.3,0.6,1.3,1.4v6.6h7.8V31c0-0.7,0.6-1.4,1.3-1.4h11.5c0.7,0,1.3,0.6,1.3,1.4
	v12.3h7.7V22.2c0-0.7,0.6-1.4,1.3-1.4h1.8l-5.1-4.2c-0.3-0.2-0.5-0.6-0.5-0.9c0-0.4,0.1-0.7,0.3-1c0.2-0.3,0.5-0.5,0.9-0.5
	c0.4,0,0.7,0.1,1,0.3l0.3,0.3V3.7H33v5.5l1.7,1.4c0.3,0.2,0.4,0.6,0.5,0.9c0,0.4-0.1,0.7-0.3,1C34.7,12.8,34.4,13,34,13
	c-0.4,0-0.7-0.1-1-0.3L24.9,6L7.1,20.9h1.7c0.7,0,1.3,0.6,1.3,1.4v6.4c0,0.7-0.6,1.4-1.3,1.4s-1.3-0.6-1.3-1.4v-5H3.3
	c-0.6,0-1.1-0.4-1.3-0.9c-0.2-0.5,0-1.1,0.4-1.5L24.1,3.3c0.5-0.4,1.2-0.4,1.7,0L30.4,7V2.4C30.4,1.6,31,1,31.7,1h9.4
	c0.7,0,1.3,0.6,1.3,1.4v14.4c0,0.1,0,0.2,0,0.3l5.1,4.2C47.9,21.5,48.1,22.1,47.9,22.7z M29.4,32.3h-8.9v11h8.9V32.3z"/>
</svg>
