<?xml version="1.0" encoding="utf-8"?>
<!-- Generator: Adobe Illustrator 21.1.0, SVG Export Plug-In . SVG Version: 6.00 Build 0)  -->
<svg version="1.1" id="Layer_1" xmlns="http://www.w3.org/2000/svg" xmlns:xlink="http://www.w3.org/1999/xlink" x="0px" y="0px"
	 viewBox="0 0 49 61" style="enable-background:new 0 0 49 61;" xml:space="preserve">
<style type="text/css">
	.st0{fill-rule:evenodd;clip-rule:evenodd;fill:#94BEE6;}
	.st1{fill-rule:evenodd;clip-rule:evenodd;fill:#626365;}
</style>
<path class="st0" d="M25,19.2c8.3,0,15,6.7,15,15c0,8.3-6.7,15-15,15s-15-6.7-15-15C10,25.9,16.7,19.2,25,19.2z"/>
<path class="st1" d="M36.9,24.5c-6.7,0-12.1-5.5-12.1-12.3S30.2,0,36.9,0C43.6,0,49,5.5,49,12.3S43.6,24.5,36.9,24.5z M36.9,2.4
	c-5.4,0-9.8,4.4-9.8,9.9s4.4,9.9,9.8,9.9c5.4,0,9.8-4.4,9.8-9.9S42.3,2.4,36.9,2.4z M38,7.2v3.9h2.1c0.6,0,1.1,0.5,1.1,1.1
	c0,0.6-0.5,1.1-1.1,1.1h-3.2c-0.6,0-1.1-0.5-1.1-1.1v-5c0-0.6,0.5-1.1,1.1-1.1S38,6.6,38,7.2z M36.9,21.5c-5,0-9.1-4.1-9.1-9.2
	c0-1.1,0.2-2.2,0.6-3.2c0.1-0.3,0.3-0.5,0.6-0.6c0.2-0.1,0.3-0.1,0.5-0.1c-0.1-0.2-0.2-0.4-0.2-0.7c0-0.3,0.1-0.6,0.3-0.8
	c0.2-0.2,0.5-0.3,0.8-0.3c0.3,0,0.6,0.1,0.8,0.3c0.2,0.2,0.3,0.5,0.3,0.8c0,0.3-0.1,0.6-0.3,0.8c-0.2,0.2-0.5,0.3-0.8,0.3
	c0,0,0,0,0,0c0.2,0.3,0.3,0.7,0.2,1c-0.3,0.8-0.4,1.6-0.4,2.4c0,3.9,3.1,7,6.9,7c3.8,0,6.9-3.1,6.9-7c0-3.9-3.1-7-6.9-7
	c-1.6,0-3.2,0.6-4.4,1.6C32.2,7,32,7.1,31.7,7.1c-0.3,0-0.6-0.2-0.7-0.4c-0.2-0.2-0.3-0.5-0.2-0.8c0-0.3,0.2-0.6,0.4-0.7
	C32.7,3.8,34.8,3,36.9,3c5,0,9.1,4.1,9.1,9.2C46,17.3,41.9,21.5,36.9,21.5z M23.8,10.4l0,0.2h-1.8c-4.8,0-8.6,3.9-8.6,8.7v1.1
	c0,0.7-0.6,1.3-1.2,1.3c-0.9,0-1.7,1.4-1.7,3c0,1.6,0.8,3,1.7,3c0,0,0.1,0,0.2,0c0.7-0.1,1.3,0.2,1.5,0.9c0.8,2.8,2.5,5.2,4.8,6.8
	c1.1,0.8,1.8,2,1.8,3.4v2.5c0,1.7-1.1,3.2-2.6,3.8L4.6,51c-1.2,0.5-2.1,1.7-2.1,3v4.5h42V54c0-1.3-0.8-2.5-2-3l-13.3-5.9
	c-1.5-0.6-2.6-2.1-2.6-3.8v-2.5c0-1.4,0.7-2.7,1.8-3.4c2.4-1.6,4.1-4,4.8-6.8c0.2-0.7,0.8-1,1.5-0.9c0,0,0.2,0,0.2,0
	c0.6,0,1.3-0.8,1.5-1.9l0-0.2l0.2,0c0,0,0.1,0,0.1,0c0,0,0.1,0,0.1,0c0.6,0,1.1,0,1.8-0.1l0.3,0l0,0.3c-0.3,2.4-1.8,4.2-3.7,4.4
	c-1,3-3,5.5-5.6,7.3c-0.4,0.3-0.7,0.8-0.7,1.3v2.5c0,0.7,0.4,1.3,1,1.5l13.3,5.9c2.1,0.8,3.6,3,3.6,5.3v5.7c0,0.7-0.6,1.3-1.2,1.3
	H1.2C0.6,61,0,60.4,0,59.7V54c0-2.3,1.5-4.5,3.6-5.3l13.2-5.9c0.7-0.3,1.1-0.8,1.1-1.5v-2.5c0-0.5-0.3-1-0.7-1.3
	c-2.6-1.7-4.5-4.3-5.6-7.3c-2.1-0.3-3.7-2.6-3.7-5.5c0-2.5,1.2-4.6,2.9-5.2v-0.1c0-6.2,5-11.2,11.1-11.2h2.4l-0.1,0.3
	C24,9,23.9,9.7,23.8,10.4z"/>
</svg>
