<?xml version="1.0" encoding="utf-8"?>
<!-- Generator: Adobe Illustrator 21.1.0, SVG Export Plug-In . SVG Version: 6.00 Build 0)  -->
<svg version="1.1" id="Layer_1" xmlns="http://www.w3.org/2000/svg" xmlns:xlink="http://www.w3.org/1999/xlink" x="0px" y="0px"
	 viewBox="0 0 48 53" style="enable-background:new 0 0 48 53;" xml:space="preserve">
<style type="text/css">
	.st0{fill-rule:evenodd;clip-rule:evenodd;fill:#94BEE6;}
	.st1{fill-rule:evenodd;clip-rule:evenodd;fill:#626365;}
</style>
<path class="st0" d="M24,10.3c8.3,0,15,6.7,15,15c0,8.3-6.7,15-15,15c-8.3,0-15-6.7-15-15C9,17,15.8,10.3,24,10.3z"/>
<path class="st1" d="M47,21.2c-2,9.6-6.9,18.3-14.1,25.2c-2.5,2.4-5.3,4.5-8.2,6.4C24.5,52.9,24.2,53,24,53c-0.2,0-0.5-0.1-0.7-0.2
	C8.7,43.6,0,28.2,0,11.4v-0.7C0,10,0.6,9.4,1.3,9.4c4.7,0,8.6-3.7,8.6-8.2c0-0.7,0.6-1.3,1.3-1.3h25.7c0.7,0,1.3,0.6,1.3,1.3
	c0,4.5,3.9,8.2,8.6,8.2c0.7,0,1.3,0.6,1.3,1.3v0.7C48,14.7,47.6,18,47,21.2z M35.7,2.5H12.3c-0.6,4.9-4.7,8.8-9.8,9.4
	C2.7,27.3,10.7,41.6,24,50.2c2.6-1.7,5-3.6,7.2-5.7C38,38,42.6,29.8,44.5,20.7c0.6-2.9,0.9-5.8,1-8.8C40.3,11.3,36.3,7.4,35.7,2.5z
	 M22.3,35c-0.2,0.2-0.6,0.4-0.9,0.4c-0.3,0-0.7-0.1-0.9-0.4l-5.7-5.8c-1.5-1.5-1.5-3.8,0-5.3c1.5-1.5,3.8-1.5,5.3,0l1.3,1.3l6.5-6.5
	c0.7-0.7,1.6-1.1,2.6-1.1c1,0,2,0.4,2.6,1.1c0.7,0.7,1.1,1.6,1.1,2.6c0,1-0.4,1.9-1.1,2.6L22.3,35z M31.4,20.5
	c-0.5-0.5-1.3-0.5-1.7,0l-7.4,7.4c-0.5,0.5-1.3,0.5-1.8,0l-2.2-2.2c-0.2-0.2-0.5-0.4-0.9-0.4c-0.3,0-0.6,0.1-0.9,0.4
	c-0.5,0.5-0.5,1.3,0,1.7l4.9,4.9l10-10c0.2-0.2,0.4-0.5,0.4-0.9C31.8,21.1,31.7,20.8,31.4,20.5z"/>
</svg>
