<?xml version="1.0" encoding="utf-8"?>
<!-- Generator: Adobe Illustrator 21.1.0, SVG Export Plug-In . SVG Version: 6.00 Build 0)  -->
<svg version="1.1" id="Layer_1" xmlns="http://www.w3.org/2000/svg" xmlns:xlink="http://www.w3.org/1999/xlink" x="0px" y="0px"
	 viewBox="0 0 52 30" style="enable-background:new 0 0 52 30;" xml:space="preserve">
<style type="text/css">
	.st0{fill-rule:evenodd;clip-rule:evenodd;fill:#94BEE6;}
	.st1{fill:#626365;}
</style>
<path class="st0" d="M26,0c8.3,0,15,6.7,15,15c0,8.3-6.7,15-15,15c-8.3,0-15-6.7-15-15C11,6.7,17.7,0,26,0z"/>
<path class="st1" d="M52,12.6L52,12.6c0-0.1,0-0.1,0-0.1c0,0,0,0,0,0c0,0,0-0.1,0-0.1c0,0,0,0,0,0c0,0,0-0.1,0-0.1c0,0,0,0,0,0
	c0,0,0,0,0,0c0,0,0,0,0-0.1c0,0,0,0,0-0.1c0,0,0,0,0,0c0,0,0,0,0,0c0,0,0,0,0-0.1c0,0,0,0,0-0.1c0,0,0,0,0,0c0,0,0,0-0.1-0.1l0,0
	c-0.2-0.2-0.4-0.3-0.6-0.4c-0.2,0-0.3,0-0.5,0l0,0c0,0-0.1,0-0.1,0c0,0,0,0,0,0c0,0-0.1,0-0.1,0c0,0,0,0,0,0c-0.3,0.1-0.7,0.2-1,0.2
	c-1.5,0-3.4-1-6.2-3.2C39.4,5.4,36.1,4,33.2,4c-2.6,0-5,1.1-7.2,3.3C23.9,5.1,21.5,4,18.8,4c-3,0-6.2,1.4-9.9,4.4
	c-2.8,2.3-4.6,3.2-6.2,3.2c-0.4,0-0.7-0.1-1-0.2c0,0,0,0,0,0c0,0-0.1,0-0.1,0l0,0c0,0-0.1,0-0.1,0c-0.2,0-0.3,0-0.5,0
	c-0.2,0.1-0.5,0.2-0.6,0.4l0,0c0,0,0,0-0.1,0.1c0,0,0,0,0,0c0,0,0,0,0,0.1c0,0,0,0,0,0.1c0,0,0,0,0,0c0,0,0,0,0,0c0,0,0,0,0,0.1
	c0,0,0,0,0,0.1c0,0,0,0,0,0c0,0,0,0,0,0c0,0,0,0,0,0.1c0,0,0,0,0,0.1c0,0,0,0,0,0.1c0,0,0,0,0,0.1c0,0,0,0,0,0.1c0,0,0,0,0,0.1
	c0,0,0,0,0,0.1c0,0,0,0,0,0l0,0c0,0,0,0.1,0,0.1c0,0,0,0,0,0l0,0c0,0,0,0.1,0,0.1l0,0C0,13,0,13,0,13c0.1,0.2,0.2,0.4,0.4,0.6
	c0,0,0,0,0,0l0,0c0,0,0,0,0,0c0,0,0,0,0,0l0,0c0,0,0,0,0.1,0l0,0C0.8,13.9,1,14,1.2,14.1c1.5,0.9,3.7,3,5.1,4.4
	c0.9,0.9,3.3,3.2,6.7,5.3c4.4,2.7,8.7,4.1,13,4.1c4.2,0,8.6-1.4,13-4.1c3.4-2.1,5.8-4.5,6.7-5.3c1.4-1.4,3.6-3.5,5.1-4.4
	c0.2-0.1,0.4-0.2,0.6-0.3c0,0,0,0,0,0c0,0,0,0,0,0l0,0c0,0,0,0,0.1,0c0,0,0,0,0,0l0,0c0.2-0.2,0.4-0.4,0.5-0.7c0-0.1,0-0.1,0-0.2
	l0,0c0,0,0-0.1,0-0.1v0C52,12.6,52,12.6,52,12.6z M12,15.9L12,15.9c3.8-0.2,7.7-0.5,13.3,2.8c0.2,0.1,0.5,0.2,0.7,0.2
	c0.3,0,0.5-0.1,0.7-0.2c5.6-3.3,9.5-3.1,13.3-2.8c1.5,0.1,2.9,0.2,4.5,0.1c-0.3,0.3-0.5,0.5-0.8,0.7c-5.9,5.7-12,8.7-17.7,8.7
	c-5.7,0-11.9-3-17.7-8.7C8,16.5,7.8,16.2,7.5,16C9.1,16.1,10.6,16,12,15.9z M26,16.1c-4.4-2.4-7.9-2.9-11-2.9
	c-1.1,0-2.1,0.1-3.1,0.1c-1.8,0.1-3.5,0.2-5.3-0.1c1.5-0.8,2.9-1.8,4.1-2.8c3.1-2.5,5.8-3.8,8.1-3.8c2.2,0,4.2,1.2,6.1,3.5
	c0.3,0.3,0.7,0.5,1.1,0.5c0.4,0,0.8-0.2,1.1-0.5c1.8-2.4,3.8-3.5,6.1-3.5c2.3,0,5,1.2,8.1,3.8c1.2,1,2.6,2,4.1,2.8
	c-1.7,0.3-3.5,0.2-5.3,0.1C36.3,13,31.9,12.8,26,16.1z M51.8,12.8L51.8,12.8L51.8,12.8L51.8,12.8z M51.8,12.7L51.8,12.7L51.8,12.7
	L51.8,12.7z"/>
</svg>
