<?xml version="1.0" encoding="utf-8"?>
<!-- Generator: Adobe Illustrator 21.1.0, SVG Export Plug-In . SVG Version: 6.00 Build 0)  -->
<svg version="1.1" id="Layer_1" xmlns="http://www.w3.org/2000/svg" xmlns:xlink="http://www.w3.org/1999/xlink" x="0px" y="0px"
	 viewBox="0 0 42.6 51.9" style="enable-background:new 0 0 42.6 51.9;" xml:space="preserve">
<style type="text/css">
	.st0{fill-rule:evenodd;clip-rule:evenodd;fill:#94BEE6;}
	.st1{fill-rule:evenodd;clip-rule:evenodd;fill:#626365;}
</style>
<path class="st0" d="M21.5,12c8,0,14.5,6.5,14.5,14.5S29.5,41,21.5,41S7,34.5,7,26.5S13.5,12,21.5,12z"/>
<path class="st1" d="M42.6,26.7C42.6,26.7,42.6,26.7,42.6,26.7C42.6,26.8,42.6,26.8,42.6,26.7c-1.7,11.5-9.4,21.4-20,25.9
	c-0.2,0.1-0.4,0.2-0.6,0.2c0,0,0,0,0,0c-0.1,0-0.2,0.1-0.3,0.1c-0.1,0-0.2,0-0.3,0c-0.1,0-0.2,0-0.3,0c0,0-0.1,0-0.1,0
	c-0.1,0-0.1,0-0.2,0l-0.6-0.2C9.8,48.1,2.1,38.2,0.4,26.8c0,0,0,0,0,0c0,0,0-0.1,0-0.1C0.1,25,0,23.4,0,21.7v-13
	c0-0.8,0.7-1.5,1.5-1.5C3.9,7.2,8,6,13.3,3.7c4.1-1.8,7.5-3.6,7.5-3.6c0,0,0,0,0.1,0c0.1,0,0.1-0.1,0.2-0.1c0,0,0.1,0,0.1,0
	c0.1,0,0.2,0,0.3,0c0,0,0.1,0,0.1,0c0.1,0,0.2,0,0.3,0c0,0,0.1,0,0.1,0c0.1,0,0.1,0.1,0.2,0.1c0,0,0,0,0.1,0
	c0.1,0.1,13.4,7.1,19.3,7.1c0.8,0,1.5,0.7,1.5,1.5v13C43,23.4,42.9,25,42.6,26.7z M23,49.1c8.3-4.1,14.4-12,16.3-21.2h-6.4
	c-0.7,5.1-4.8,9.2-9.9,9.9V49.1z M20,49.1V37.9c-5.2-0.7-9.2-4.8-9.9-9.9H3.7C5.6,37.1,11.6,45,20,49.1z M20,3.9
	c-1.4,0.7-3.4,1.6-5.5,2.6C9.7,8.6,5.8,9.8,3,10.1v11.6c0,1.1,0.1,2.2,0.2,3.3h6.9c0.7-5.1,4.8-9.2,9.9-9.9V3.9z M21.5,18
	c-4.7,0-8.5,3.8-8.5,8.5c0,4.7,3.8,8.5,8.5,8.5c4.7,0,8.5-3.8,8.5-8.5C30,21.8,26.2,18,21.5,18z M40,10.1c-5.2-0.7-13.2-4.4-17-6.2
	v11.2c5.2,0.7,9.2,4.7,9.9,9.9h6.9c0.1-1.1,0.2-2.2,0.2-3.3V10.1z M21.2,29.9c-0.3,0.3-0.7,0.4-1.1,0.4c-0.4,0-0.8-0.2-1.1-0.4l-2-2
	c-0.6-0.6-0.6-1.5,0-2.1c0.6-0.6,1.6-0.6,2.1,0l1,1l3.7-3.7c0.6-0.6,1.5-0.6,2.1,0c0.6,0.6,0.6,1.5,0,2.1L21.2,29.9z"/>
</svg>
