<?xml version="1.0" encoding="utf-8"?>
<!-- Generator: Adobe Illustrator 21.1.0, SVG Export Plug-In . SVG Version: 6.00 Build 0)  -->
<svg version="1.1" id="Layer_1" xmlns="http://www.w3.org/2000/svg" xmlns:xlink="http://www.w3.org/1999/xlink" x="0px" y="0px"
	 viewBox="0 0 47.5 29" style="enable-background:new 0 0 47.5 29;" xml:space="preserve">
<style type="text/css">
	.st0{fill-rule:evenodd;clip-rule:evenodd;fill:#94BEE6;}
	.st1{fill:#626365;}
</style>
<path class="st0" d="M24,0c8,0,14.5,6.5,14.5,14.5C38.5,22.5,32,29,24,29S9.5,22.5,9.5,14.5C9.5,6.5,16,0,24,0z"/>
<path class="st1" d="M47.5,11.4c0,0,0-0.1,0-0.1l0,0c0,0,0-0.1,0-0.1c0,0,0,0,0,0c0,0,0-0.1,0-0.1c0,0,0,0,0-0.1c0,0,0-0.1,0-0.1
	c0,0,0,0,0,0c0,0,0,0,0,0c0,0,0-0.1,0-0.1c0,0,0,0,0-0.1c0,0,0,0,0,0c0,0,0,0,0,0c0,0,0,0,0-0.1c0,0,0,0-0.1-0.1c0,0,0,0,0,0
	c0,0-0.1-0.1-0.1-0.1l0,0c-0.2-0.2-0.5-0.4-0.8-0.5c-0.2-0.1-0.4-0.1-0.6,0l0,0c0,0-0.1,0-0.1,0c0,0,0,0,0,0c0,0-0.1,0-0.1,0
	c0,0,0,0,0,0c-0.2,0.1-0.5,0.1-0.7,0.1c-1.2,0-2.8-0.8-5.1-2.8C36.1,4.3,33.1,3,30.3,3C28,3,25.9,3.9,24,5.8C22.1,3.9,20,3,17.7,3
	c-2.8,0-5.7,1.3-9.1,4.1c-2.4,2-3.9,2.8-5.1,2.8c-0.3,0-0.5,0-0.7-0.1c0,0,0,0,0,0c0,0-0.1,0-0.1,0l0,0c-0.1,0-0.1,0-0.1,0
	c-0.2,0-0.4,0-0.6,0C1.5,9.9,1.2,10,1,10.2l0,0c0,0-0.1,0.1-0.1,0.1c0,0,0,0,0,0c0,0,0,0.1-0.1,0.1c0,0,0,0,0,0.1c0,0,0,0,0,0
	c0,0,0,0,0,0c0,0,0,0,0,0.1c0,0,0,0,0,0.1c0,0,0,0,0,0c0,0,0,0,0,0.1c0,0,0,0,0,0.1c0,0,0,0.1,0,0.1c0,0,0,0.1,0,0.1
	c0,0,0,0.1,0,0.1c0,0,0,0.1,0,0.1c0,0,0,0,0,0.1c0,0,0,0.1,0,0.1c0,0,0,0,0,0.1l0,0c0,0,0,0.1,0,0.1c0,0,0,0,0,0c0,0,0,0.1,0,0.1
	l0,0c0,0,0,0.1,0,0.1c0.1,0.3,0.3,0.6,0.5,0.8c0,0,0,0,0.1,0.1l0,0c0,0,0,0,0.1,0c0,0,0,0,0.1,0l0,0c0,0,0,0,0.1,0l0,0
	c0.2,0.1,0.3,0.2,0.5,0.3c1.3,0.8,3.2,2.7,4.4,4c0.8,0.8,2.9,3,6,4.9c4,2.6,7.9,3.9,11.7,3.9c3.8,0,7.8-1.3,11.7-3.9
	c3.1-2,5.2-4.1,6-4.9c1.2-1.2,3.1-3.1,4.4-4c0.2-0.1,0.4-0.2,0.5-0.3c0,0,0,0,0,0c0,0,0,0,0,0l0,0c0,0,0,0,0.1-0.1c0,0,0,0,0,0
	c0.3-0.2,0.5-0.6,0.6-0.9c0-0.1,0-0.2,0-0.3l0,0C47.5,11.6,47.5,11.5,47.5,11.4L47.5,11.4z M11.7,14.9L11.7,14.9
	c3.3-0.2,6.7-0.4,11.4,2.5c0.3,0.2,0.6,0.3,0.9,0.3c0.3,0,0.6-0.1,0.9-0.3c4.8-2.9,8.2-2.7,11.4-2.5C37.2,15,38.1,15,39,15
	c-5,4.9-10.2,7.5-15,7.5S14,19.9,9,15C9.9,15,10.8,15,11.7,14.9z M36.5,11.5C33.1,11.3,29.2,11,24,14c-4.1-2.3-7.4-2.6-9.7-2.6
	c-1,0-1.9,0.1-2.8,0.1c-1,0.1-2,0.1-3,0.1c0.9-0.6,1.7-1.2,2.3-1.8c2.7-2.2,4.9-3.3,6.8-3.3c1.8,0,3.4,1,4.9,3
	c0.3,0.4,0.8,0.7,1.4,0.7c0.5,0,1.1-0.3,1.4-0.7c1.5-2,3.1-3,4.9-3c1.9,0,4.2,1.1,6.8,3.3c0.7,0.6,1.5,1.2,2.3,1.8
	C38.5,11.6,37.6,11.5,36.5,11.5L36.5,11.5z"/>
</svg>
