<?xml version="1.0" encoding="utf-8"?>
<!-- Generator: Adobe Illustrator 21.1.0, SVG Export Plug-In . SVG Version: 6.00 Build 0)  -->
<svg version="1.1" id="Layer_1" xmlns="http://www.w3.org/2000/svg" xmlns:xlink="http://www.w3.org/1999/xlink" x="0px" y="0px"
	 viewBox="0 0 47.3 47" style="enable-background:new 0 0 47.3 47;" xml:space="preserve">
<style type="text/css">
	.st0{fill-rule:evenodd;clip-rule:evenodd;fill:#94BEE6;}
	.st1{fill-rule:evenodd;clip-rule:evenodd;fill:#626365;}
</style>
<path class="st0" d="M23.7,9c8,0,14.5,6.5,14.5,14.5c0,8-6.5,14.5-14.5,14.5c-8,0-14.5-6.5-14.5-14.5C9.3,15.5,15.7,9,23.7,9z"/>
<path class="st1" d="M23.7,47c-13,0-23.5-10.5-23.5-23.5C0.3,10.5,10.8,0,23.7,0c13,0,23.5,10.5,23.5,23.5
	C47.3,36.5,36.7,47,23.7,47z M23.7,43c4.3,0,8.2-1.4,11.4-3.7l-5.5-5.5c-0.1,0-0.2,0.1-0.3,0.1c-0.3,0-0.5-0.1-0.7-0.4L28,32.2
	l-0.3-0.3c-0.8,0.4-1.6,0.6-2.5,0.8l0.1,1.5c0,0.4-0.3,0.8-0.7,0.8c0,0,0,0,0,0c-0.4,0-0.7-0.3-0.7-0.7l-0.1-1.6c-0.2,0-0.4,0-0.6,0
	c-0.7-0.1-1.4-0.3-2.1-0.5l-1.2,2.4c-0.1,0.3-0.4,0.4-0.7,0.4c-0.1,0-0.2,0-0.3-0.1c-0.4-0.2-0.5-0.6-0.3-1l1.1-2.2
	c-0.8-0.4-1.6-0.8-2.2-1.4l-2,2.1c-0.1,0.1-0.3,0.2-0.5,0.2c-0.2,0-0.4-0.1-0.5-0.2c-0.3-0.3-0.3-0.7,0-1l2-2.1
	c-0.6-0.7-1.1-1.4-1.4-2.1l-2.8,0.8c-0.1,0-0.1,0-0.2,0c-0.3,0-0.6-0.2-0.7-0.5c-0.1-0.4,0.1-0.8,0.5-0.9l2.8-0.9
	c-0.1-0.7-0.2-1.4-0.1-2.1c0.1-0.5,0.2-1,0.3-1.4l-2.6-0.4c-0.4-0.1-0.7-0.4-0.6-0.8c0.1-0.4,0.4-0.7,0.8-0.6l2.8,0.5
	c0.1-0.4,0.3-0.7,0.5-1L8,12.1c-2.3,3.2-3.7,7.1-3.7,11.4C4.2,34.3,13,43,23.7,43z M29.6,24.1c-0.6-3.1-2.5-6.4-6.2-6.4
	c-1,0-1.9,0.2-2.7,0.6l2.6,2.6c0.2-0.5,0.7-0.9,1.3-0.9c0.8,0,1.5,0.7,1.5,1.5c0,0.6-0.4,1.1-0.9,1.3l0.9,0.9c0.1,0,0.2-0.1,0.3-0.1
	c0.6,0,1.1,0.5,1.1,1.1c0,0.1,0,0.2-0.1,0.3l1.7,1.7C29.6,26,29.8,25,29.6,24.1z M17.2,24c-0.2,1.9,0.7,3.2,1.6,3.9
	c1.2,1.1,2.9,1.8,4.8,2.1c0.7,0.1,1.5,0,2.2-0.2L22.9,27c0,0-0.1,0-0.1,0c-0.8,0-1.5-0.7-1.5-1.5c0,0,0-0.1,0-0.1l-3.6-3.6
	C17.5,22.5,17.3,23.2,17.2,24z M23.7,4c-4.9,0-9.3,1.8-12.7,4.7l7.7,7.7c0.4-0.2,0.7-0.4,1.1-0.6L19,13.2c-0.1-0.4,0.1-0.8,0.5-0.9
	c0.4-0.1,0.8,0.1,0.9,0.5l0.9,2.6c0.6-0.2,1.3-0.3,2-0.3l0.3-2.4c0-0.4,0.4-0.7,0.8-0.6c0.4,0,0.7,0.4,0.7,0.8l-0.3,2.3
	c0.7,0.1,1.4,0.4,2.1,0.7l1.5-2.3c0.2-0.3,0.7-0.4,1-0.2c0.3,0.2,0.4,0.7,0.2,1l-1.4,2.3c0.6,0.4,1.1,0.9,1.5,1.4l2.3-1.6
	c0.3-0.2,0.8-0.2,1,0.2c0.2,0.3,0.2,0.8-0.2,1l-2.3,1.6c0.5,0.7,0.8,1.5,1.2,2.4l2.2-0.7c0.4-0.1,0.8,0.1,0.9,0.5
	c0.1,0.4-0.1,0.8-0.5,0.9L32.1,23c0.1,0.2,0.1,0.4,0.1,0.6c0.1,0.5,0.1,1,0.1,1.6l2.3,0.4c0.4,0.1,0.7,0.4,0.6,0.8
	c-0.1,0.4-0.4,0.6-0.7,0.6c0,0-0.1,0-0.1,0l-2.2-0.4c-0.2,0.7-0.4,1.3-0.8,1.9l2,1.5c0.3,0.2,0.4,0.7,0.1,1c0,0,0,0,0,0l5.1,5.1
	c2.9-3.4,4.7-7.8,4.7-12.7C43.3,12.7,34.5,4,23.7,4z"/>
</svg>
