<?xml version="1.0" encoding="utf-8"?>
<!-- Generator: Adobe Illustrator 21.1.0, SVG Export Plug-In . SVG Version: 6.00 Build 0)  -->
<svg version="1.1" id="Layer_1" xmlns="http://www.w3.org/2000/svg" xmlns:xlink="http://www.w3.org/1999/xlink" x="0px" y="0px"
	 viewBox="0 0 44 52" style="enable-background:new 0 0 44 52;" xml:space="preserve">
<style type="text/css">
	.st0{fill-rule:evenodd;clip-rule:evenodd;fill:#94BEE6;}
	.st1{fill-rule:evenodd;clip-rule:evenodd;fill:#626365;}
</style>
<path class="st0" d="M20.6,16c8,0,14.5,6.5,14.5,14.5c0,8-6.5,14.5-14.5,14.5c-8,0-14.5-6.5-14.5-14.5C6.1,22.5,12.6,16,20.6,16z"/>
<path class="st1" d="M44,41.1c0,6-4.8,10.9-10.8,10.9c-2.1,0-4-0.6-5.7-1.7c-2.3,0.9-4.8,1.4-7.3,1.4C9.1,51.7,0,42.4,0,30.9
	c0-1.8,0.2-3.7,0.7-5.4c0.2-0.9,1.2-1.5,2.1-1.3c0.9,0.3,1.5,1.2,1.2,2.2c-0.4,1.5-0.6,3-0.6,4.5c0,9.5,7.6,17.3,16.9,17.3
	c1.5,0,2.9-0.2,4.3-0.6c-1.4-1.8-2.2-4.1-2.2-6.6c0-3.4,1.5-6.4,3.9-8.4c-0.1,0-0.2,0-0.3,0h-5.8c-1,0-1.7-0.8-1.7-1.8V18.7
	c0-1,0.8-1.8,1.7-1.8c1,0,1.7,0.8,1.7,1.8v10.5h4.1c1,0,1.7,0.8,1.7,1.8c0,0.3-0.1,0.6-0.2,0.8c1.6-1,3.6-1.6,5.6-1.6
	c1.4,0,2.7,0.3,3.9,0.8c0-9.5-7.6-17.3-16.9-17.3c-4.7,0-9.3,2.1-12.5,5.7c-0.3,0.4-0.7,0.6-1.2,0.6c-0.5,0-0.9-0.1-1.2-0.4
	c-0.3-0.3-0.5-0.7-0.6-1.2c0-0.5,0.1-0.9,0.4-1.3c3.5-3.9,8.2-6.3,13.3-6.7V8.9h-4.1c-1,0-1.7-0.8-1.7-1.8V1.8c0-1,0.8-1.8,1.7-1.8
	h11.6c1,0,1.7,0.8,1.7,1.8v5.4c0,1-0.8,1.8-1.7,1.8h-4.1v1.3c10.4,0.9,18.6,9.9,18.6,20.7c0,0.7,0,1.4-0.1,2.1
	C42.7,35,44,37.9,44,41.1z M24.4,5.4V3.5h-8.1v1.9H24.4z M39.7,37.7c0.1,0.5-0.1,1.1-0.5,1.5l-6.2,6.3c-0.3,0.3-0.8,0.5-1.2,0.5
	s-0.9-0.2-1.2-0.5L27.2,42c-0.3-0.3-0.5-0.8-0.5-1.2c0-0.5,0.2-0.9,0.5-1.2c0.7-0.7,1.8-0.7,2.5,0l2.2,2.2l4.9-5
	c0.6-0.6,1.5-0.7,2.1-0.2c-1.3-1.7-3.4-2.8-5.7-2.8c-4,0-7.3,3.3-7.3,7.4c0,4.1,3.3,7.4,7.3,7.4s7.3-3.3,7.3-7.4
	C40.6,39.9,40.3,38.7,39.7,37.7z M5.6,22c0,0.5-0.2,0.9-0.5,1.2c-0.3,0.3-0.8,0.5-1.2,0.5c-0.5,0-0.9-0.2-1.2-0.5
	c-0.3-0.3-0.5-0.8-0.5-1.2c0-0.5,0.2-0.9,0.5-1.2c0.7-0.7,1.8-0.7,2.5,0C5.4,21.1,5.6,21.6,5.6,22z"/>
</svg>
