<?xml version="1.0" encoding="utf-8"?>
<!-- Generator: Adobe Illustrator 21.1.0, SVG Export Plug-In . SVG Version: 6.00 Build 0)  -->
<svg version="1.1" id="Layer_1" xmlns="http://www.w3.org/2000/svg" xmlns:xlink="http://www.w3.org/1999/xlink" x="0px" y="0px"
	 viewBox="0 0 54 47" style="enable-background:new 0 0 54 47;" xml:space="preserve">
<style type="text/css">
	.st0{fill-rule:evenodd;clip-rule:evenodd;fill:#94BEE6;}
	.st1{fill-rule:evenodd;clip-rule:evenodd;fill:#626365;}
</style>
<path class="st0" d="M27.5,9c8,0,14.5,6.5,14.5,14.5c0,8-6.5,14.5-14.5,14.5c-8,0-14.5-6.5-14.5-14.5C13,15.5,19.5,9,27.5,9z"/>
<path class="st1" d="M40.5,47h-27L0,23.5L13.5,0h27L54,23.5L40.5,47z M38.4,3.4H15.6L4.2,23.5l11.4,20.1h22.8l11.4-20.1L38.4,3.4z
	 M42.9,22.9c-0.1,0.4-0.2,0.7-0.5,1c-0.2,0.3-0.6,0.5-1,0.7c-0.4,0.2-0.9,0.3-1.6,0.3h-1.3V28c0,0.1,0,0.1,0,0.2
	c0,0.1-0.1,0.1-0.2,0.1h-1.6c-0.2,0-0.3-0.1-0.3-0.3v-8.7c0-0.1,0-0.2,0.1-0.2c0-0.1,0.1-0.1,0.2-0.1h3.2c0.4,0,0.8,0.1,1.2,0.2
	c0.4,0.1,0.7,0.3,1,0.5c0.3,0.2,0.5,0.5,0.7,0.9c0.2,0.4,0.2,0.8,0.2,1.3C43,22.2,43,22.6,42.9,22.9z M40.4,21.1
	c-0.2-0.2-0.5-0.3-0.9-0.3h-1v2.2h1c0.4,0,0.7-0.1,0.9-0.3c0.2-0.2,0.3-0.5,0.3-0.9C40.7,21.6,40.6,21.3,40.4,21.1z M33.5,26.8
	c-0.3,0.5-0.7,0.9-1.2,1.2c-0.5,0.3-1.3,0.5-2.2,0.5c-0.6,0-1.1-0.1-1.6-0.2s-0.8-0.3-1.1-0.6c-0.3-0.2-0.5-0.5-0.7-0.9
	c-0.2-0.3-0.3-0.7-0.4-1c-0.1-0.4-0.2-0.7-0.2-1.1s0-0.7,0-1.1c0-0.3,0-0.6,0-0.9c0-0.3,0.1-0.7,0.2-1c0.1-0.3,0.2-0.7,0.4-1
	c0.2-0.3,0.4-0.6,0.7-0.9c0.3-0.3,0.7-0.5,1.1-0.6c0.4-0.2,0.9-0.2,1.5-0.2c0.9,0,1.6,0.1,2.1,0.4c0.5,0.3,0.9,0.6,1.2,1.1
	c0.3,0.4,0.5,0.9,0.6,1.5c0.1,0.6,0.1,1.1,0.1,1.7c0,0.5,0,1.1-0.1,1.7C34,25.8,33.8,26.3,33.5,26.8z M31.5,21.5
	c-0.2-0.5-0.7-0.7-1.4-0.7c-0.6,0-1.1,0.2-1.3,0.7c-0.2,0.5-0.4,1.2-0.4,2.2c0,0.9,0.1,1.6,0.3,2.1c0.2,0.5,0.7,0.7,1.3,0.7
	c0.7,0,1.1-0.2,1.4-0.7c0.3-0.5,0.4-1.2,0.4-2.1C31.9,22.7,31.8,22,31.5,21.5z M25.5,20.9h-2.1V28c0,0.1,0,0.1,0,0.2
	c0,0.1-0.1,0.1-0.2,0.1h-1.6c-0.1,0-0.2,0-0.2-0.1c0-0.1-0.1-0.1-0.1-0.2v-7.1h-2.1c-0.1,0-0.2,0-0.3-0.1c0-0.1-0.1-0.1-0.1-0.2
	v-1.3c0-0.1,0-0.2,0.1-0.2c0-0.1,0.1-0.1,0.3-0.1h6.3c0.2,0,0.3,0.1,0.3,0.3v1.3c0,0.1,0,0.2-0.1,0.2C25.7,20.9,25.6,20.9,25.5,20.9
	z M17,27.8c-0.3,0.2-0.7,0.4-1.2,0.5c-0.4,0.1-0.9,0.1-1.4,0.1c-0.1,0-0.3,0-0.6,0s-0.5,0-0.7-0.1c-0.3,0-0.5-0.1-0.8-0.1
	c-0.3-0.1-0.5-0.1-0.7-0.2c-0.2-0.1-0.4-0.2-0.4-0.3c0-0.1,0-0.2,0-0.3l0.2-0.8c0-0.2,0.1-0.3,0.2-0.3c0.1,0,0.2,0,0.4,0
	c0.2,0,0.4,0,0.6,0.1c0.2,0,0.4,0,0.6,0.1c0.2,0,0.4,0,0.6,0c0.2,0,0.4,0,0.6,0c0.5,0,0.8-0.1,1-0.2c0.2-0.1,0.3-0.4,0.3-0.7
	c0-0.2,0-0.3-0.1-0.4c0-0.1-0.1-0.2-0.2-0.3c-0.1-0.1-0.2-0.1-0.4-0.2c-0.2-0.1-0.4-0.1-0.6-0.1c-0.4-0.1-0.8-0.2-1.2-0.3
	c-0.4-0.1-0.7-0.3-1.1-0.5c-0.3-0.2-0.6-0.5-0.7-0.8c-0.2-0.3-0.3-0.7-0.3-1.2c0-0.5,0.1-0.9,0.2-1.2c0.2-0.4,0.4-0.7,0.7-0.9
	c0.3-0.2,0.7-0.4,1.1-0.5c0.4-0.1,0.9-0.2,1.4-0.2c0.1,0,0.3,0,0.5,0c0.2,0,0.4,0,0.7,0c0.2,0,0.5,0.1,0.8,0.1
	c0.3,0.1,0.5,0.1,0.7,0.2c0.2,0.1,0.4,0.2,0.4,0.3c0,0.1,0,0.2,0,0.3l-0.2,0.8c0,0.1,0,0.2-0.1,0.2c0,0-0.1,0.1-0.1,0.1
	c0,0-0.1,0-0.2,0c-0.1,0-0.2,0-0.2,0c-0.3,0-0.6-0.1-1-0.1c-0.3,0-0.7,0-1.1,0c-0.4,0-0.7,0.1-0.9,0.2c-0.2,0.1-0.3,0.3-0.3,0.6
	c0,0.1,0,0.3,0.1,0.4c0,0.1,0.1,0.2,0.2,0.2c0.1,0.1,0.2,0.1,0.4,0.2c0.2,0,0.4,0.1,0.6,0.1c0.4,0.1,0.8,0.2,1.2,0.3
	c0.4,0.1,0.7,0.3,1.1,0.5c0.3,0.2,0.6,0.5,0.7,0.8c0.2,0.3,0.3,0.8,0.3,1.3c0,0.6-0.1,1-0.3,1.4C17.6,27.3,17.4,27.6,17,27.8z"/>
</svg>
