<?xml version="1.0" encoding="utf-8"?>
<!-- Generator: Adobe Illustrator 21.1.0, SVG Export Plug-In . SVG Version: 6.00 Build 0)  -->
<svg version="1.1" id="Layer_1" xmlns="http://www.w3.org/2000/svg" xmlns:xlink="http://www.w3.org/1999/xlink" x="0px" y="0px"
	 viewBox="0 0 62 62" style="enable-background:new 0 0 62 62;" xml:space="preserve">
<style type="text/css">
	.st0{fill-rule:evenodd;clip-rule:evenodd;fill:#626365;}
	.st1{fill:#FFF200;}
</style>
<path class="st0" d="M34.4,23.9L27.3,31l7.1,7.1c0.8,0.8,0.8,2,0,2.8c-0.8,0.8-2,0.8-2.8,0L23,32.4c-0.8-0.8-0.8-2,0-2.8l8.5-8.5
	c0.8-0.8,2-0.8,2.8,0C35.1,21.9,35.1,23.2,34.4,23.9z"/>
<g>
	<path class="st1" d="M31,62C13.9,62,0,48.1,0,31S13.9,0,31,0s31,13.9,31,31S48.1,62,31,62z M31,2C15,2,2,15,2,31s13,29,29,29
		s29-13,29-29S47,2,31,2z"/>
</g>
</svg>
